<?xml version="1.0" standalone="no"?>
<!DOCTYPE svg PUBLIC "-//W3C//DTD SVG 20010904//EN"
 "http://www.w3.org/TR/2001/REC-SVG-20010904/DTD/svg10.dtd">
<svg version="1.0" xmlns="http://www.w3.org/2000/svg"
 width="2000.000000pt" height="2000.000000pt" viewBox="0 0 2000.000000 2000.000000"
 preserveAspectRatio="xMidYMid meet">

<g transform="translate(0.000000,2000.000000) scale(0.100000,-0.100000)"
fill="#000000" stroke="none">
<path d="M5260 18262 l-45 -18 -3 -267 -2 -267 22 9 c13 5 52 12 88 16 36 3
81 10 100 15 19 4 60 11 91 15 l57 6 7 47 c12 76 6 222 -12 285 -18 65 -73
135 -127 161 -44 21 -119 20 -176 -2z"/>
<path d="M5393 17415 c0 -8 4 -12 9 -9 5 3 6 10 3 15 -9 13 -12 11 -12 -6z"/>
<path d="M10222 17363 c-7 -3 -24 -22 -38 -44 -29 -47 -34 -138 -8 -159 43
-36 114 49 114 136 0 58 -27 84 -68 67z"/>
<path d="M11930 17153 c-118 -69 -277 -161 -353 -205 -75 -44 -142 -88 -147
-98 -6 -10 -10 -82 -10 -158 l0 -140 -106 -122 c-59 -68 -104 -129 -102 -138
2 -9 37 -36 77 -60 57 -33 81 -42 103 -38 l27 5 3 -126 3 -126 60 -38 c33 -21
70 -38 81 -38 20 -1 698 383 737 417 16 14 17 49 17 461 0 245 -4 451 -8 457
-13 20 -118 74 -143 73 -13 0 -121 -57 -239 -126z m107 -272 c-3 -16 -9 -40
-13 -55 -5 -22 -2 -27 21 -36 15 -6 30 -8 34 -5 5 2 16 32 25 65 11 38 22 60
32 60 19 0 18 -5 -10 -91 -18 -57 -21 -78 -13 -96 11 -25 22 -29 32 -13 3 6
15 10 25 10 15 0 20 -12 27 -62 5 -35 7 -69 4 -77 -7 -22 -31 17 -31 50 0 29
-16 47 -30 33 -4 -5 -10 -48 -13 -96 l-5 -87 29 -6 c16 -4 29 -12 28 -18 -1
-26 -55 -151 -67 -155 -17 -5 -15 20 8 78 11 28 20 55 20 60 0 6 -9 10 -20 10
-11 0 -20 -6 -20 -14 0 -39 -79 -153 -133 -193 -45 -34 -112 -32 -149 4 -27
26 -28 26 -42 8 -12 -17 -12 -24 5 -57 21 -41 24 -68 9 -68 -11 0 -60 92 -60
112 0 6 11 23 24 37 22 24 23 32 19 108 -7 102 -26 103 -43 2 -8 -47 -16 -69
-26 -69 -16 0 -16 4 -1 95 12 66 14 70 44 79 28 7 34 16 47 61 15 48 14 55 -5
104 -11 30 -18 56 -15 58 12 12 35 -8 41 -36 6 -28 25 -44 25 -22 0 4 14 26
31 47 30 38 33 66 12 120 -3 8 1 14 11 14 10 0 19 -11 23 -30 3 -17 10 -33 15
-36 17 -11 56 25 63 58 12 52 24 78 36 78 7 0 9 -10 6 -29z"/>
<path d="M11965 16752 c-51 -32 -124 -130 -108 -146 11 -11 63 -6 91 8 50 26
123 119 106 136 -20 19 -60 20 -89 2z"/>
<path d="M12027 16645 l-57 -63 -6 -154 -7 -153 28 25 c67 61 115 190 114 303
-1 113 -5 115 -72 42z"/>
<path d="M11820 16541 c-6 -20 -13 -70 -16 -111 -7 -97 10 -148 56 -172 60
-31 66 -19 73 153 4 84 6 153 5 154 -2 2 -27 5 -55 7 l-53 5 -10 -36z"/>
<path d="M3480 17224 c-8 -3 -34 -12 -57 -20 l-43 -16 0 -254 c0 -140 3 -254
7 -254 4 0 82 76 174 169 92 93 171 166 175 163 17 -17 -7 69 -31 109 -49 81
-150 127 -225 103z"/>
<path d="M9954 17194 c-36 -46 -46 -134 -19 -164 22 -25 36 -25 62 -2 47 40
68 134 43 183 -17 31 -55 24 -86 -17z"/>
<path d="M10355 17081 c-98 -58 -186 -109 -660 -381 -203 -117 -422 -243 -485
-280 -63 -37 -270 -156 -460 -266 -190 -109 -383 -220 -430 -248 -119 -69
-193 -112 -280 -161 -41 -23 -102 -58 -135 -77 -33 -19 -105 -61 -160 -93 -55
-32 -221 -127 -368 -212 l-268 -153 -77 45 -77 45 -3 -2245 c-2 -1926 0 -2250
12 -2280 15 -35 41 -55 154 -116 l62 -34 63 34 c34 19 174 99 312 179 137 80
270 156 295 170 70 39 572 329 637 369 12 7 25 13 28 13 3 0 5 -42 5 -93 0
-81 -3 -96 -20 -112 -25 -22 -26 -36 -2 -29 14 5 14 4 2 -4 -8 -6 -17 -9 -21
-7 -11 8 -38 -29 -54 -74 -11 -32 -15 -86 -15 -211 l0 -168 -77 -44 c-75 -43
-265 -153 -628 -363 -93 -54 -226 -130 -295 -170 -210 -121 -519 -299 -639
-369 -62 -36 -115 -66 -118 -66 -2 0 -32 -17 -66 -38 -34 -22 -156 -93 -272
-160 -189 -108 -766 -441 -1295 -747 -107 -62 -287 -165 -400 -230 -113 -65
-241 -139 -285 -165 -44 -26 -204 -118 -355 -205 -151 -87 -311 -179 -355
-205 -44 -26 -235 -137 -425 -245 -190 -109 -373 -216 -408 -237 -34 -21 -64
-38 -66 -38 -3 0 -55 -30 -118 -66 -141 -83 -231 -135 -633 -367 -176 -101
-332 -187 -347 -191 -30 -7 -55 11 -63 47 -3 12 -4 1186 -3 2608 l3 2586 30
48 c27 43 50 59 260 181 127 74 263 153 303 175 l72 41 0 290 0 290 -47 -28
c-27 -15 -145 -84 -263 -152 -118 -69 -273 -158 -345 -200 -71 -41 -181 -104
-244 -140 -139 -79 -178 -114 -217 -189 l-29 -58 -3 -3024 -2 -3024 23 -51
c34 -72 70 -111 133 -142 49 -24 62 -26 142 -22 l88 4 415 239 c228 131 493
284 589 340 96 56 297 172 445 257 149 86 326 188 395 228 254 148 309 178
314 172 3 -3 6 -100 6 -215 0 -236 6 -261 79 -330 45 -42 1036 -617 1111 -645
127 -46 309 -67 450 -52 173 18 264 49 440 151 63 36 246 141 405 234 160 92
390 226 513 296 123 71 238 139 255 150 59 40 108 94 134 143 23 46 24 55 21
200 l-3 152 -33 52 c-49 76 -40 70 -682 445 -287 167 -320 188 -345 221 -51
67 -55 90 -55 319 l0 215 128 73 c269 154 630 363 707 409 44 26 103 60 130
76 28 15 118 67 202 115 83 49 169 98 190 110 102 57 1081 624 1098 635 11 8
23 14 27 14 4 0 9 -774 10 -1719 l3 -1720 21 -28 c11 -15 40 -41 63 -58 35
-25 52 -30 99 -30 32 0 70 4 85 9 l28 9 -25 -28 c-99 -107 -92 -269 16 -372
18 -17 103 -72 188 -121 85 -49 200 -115 255 -147 233 -135 361 -209 540 -312
679 -391 1477 -852 1685 -973 313 -183 460 -265 498 -282 37 -17 60 -20 126
-16 77 4 87 7 186 63 58 32 116 66 130 75 14 10 52 32 85 50 33 18 143 81 245
140 392 227 516 298 550 317 82 46 883 510 970 561 52 31 115 67 140 81 25 13
61 34 80 46 19 12 67 39 105 60 39 21 94 53 123 72 29 18 54 33 57 33 2 0 42
22 87 49 46 27 99 58 118 68 19 11 150 87 290 168 140 81 275 159 300 173 25
14 58 34 73 45 16 10 30 18 31 16 6 -7 16 -649 17 -1053 l1 -388 -49 -35 c-71
-52 -235 -127 -343 -157 -123 -35 -215 -81 -247 -123 -23 -30 -26 -45 -29
-126 -2 -58 1 -101 9 -116 17 -34 119 -88 202 -106 38 -9 113 -16 165 -16 150
0 274 34 426 117 92 50 183 74 288 74 109 0 255 47 270 87 3 7 8 51 11 96 5
66 2 101 -14 164 -25 96 -26 113 -6 113 20 0 20 8 60 485 72 868 84 1066 85
1330 l0 140 48 29 c68 42 173 98 177 94 11 -12 193 -929 375 -1883 33 -176 63
-330 65 -343 4 -16 15 -25 37 -29 l31 -6 -6 -106 c-4 -58 -16 -155 -27 -216
-71 -380 -66 -487 25 -562 52 -43 113 -58 230 -57 185 1 294 52 356 166 33 61
34 66 32 168 -1 76 -9 141 -31 235 -25 108 -28 139 -21 185 21 136 21 183 2
245 -19 60 -19 61 0 75 21 17 22 -13 -38 1130 -31 593 -50 749 -135 1095 -28
117 -40 192 -45 280 l-7 120 50 27 c139 77 201 223 145 348 -24 56 -87 125
-104 114 -8 -4 -9 -3 -5 5 5 7 -8 18 -36 31 -24 11 -53 28 -66 38 -24 19 -21
-22 -77 857 -8 132 -17 263 -19 290 -3 28 -8 116 -12 198 -4 81 -9 147 -11
147 -2 0 -68 -38 -146 -84 -265 -156 -377 -205 -597 -262 -127 -32 -370 -74
-435 -74 -20 0 -79 -29 -174 -86 -127 -76 -148 -85 -179 -80 -37 6 -405 183
-410 197 -2 5 -7 9 -11 9 -5 0 -39 17 -78 38 -38 21 -75 36 -82 34 -8 -3 -11
0 -8 6 4 5 -8 16 -26 23 -17 7 -36 17 -42 22 -5 4 -24 16 -42 25 -167 89 -291
158 -305 169 -9 8 -22 12 -29 7 -7 -4 -10 -3 -6 2 3 5 -25 25 -61 44 -37 18
-102 53 -146 77 -43 23 -83 40 -89 36 -6 -4 -7 -1 -2 7 6 10 4 12 -9 7 -10 -4
-15 -3 -11 3 3 5 -7 16 -22 22 -15 7 -70 37 -120 66 -92 52 -265 149 -313 176
-46 26 -67 70 -90 193 -12 65 -30 161 -40 213 -10 52 -42 219 -71 370 -28 151
-53 277 -55 279 -3 4 -49 -22 -319 -179 -110 -64 -263 -153 -340 -197 -619
-358 -871 -503 -1175 -678 -74 -43 -171 -99 -215 -125 -44 -26 -170 -99 -280
-162 -168 -97 -676 -391 -916 -530 -76 -44 -86 -45 -140 -18 -22 12 -44 18
-49 15 -6 -3 -10 0 -10 7 0 7 -16 22 -37 33 -21 12 -42 33 -50 52 -11 27 -13
301 -13 1563 0 935 -4 1530 -9 1530 -5 0 -16 -6 -23 -12 -7 -7 -19 -14 -25
-15 -7 -2 -41 -20 -75 -41 -35 -21 -71 -41 -81 -45 -11 -4 -15 -12 -11 -18 4
-8 3 -9 -4 -5 -16 9 -333 -173 -325 -187 3 -6 1 -7 -5 -3 -6 4 -71 -28 -144
-70 -73 -43 -157 -91 -186 -107 -46 -25 -51 -31 -40 -45 10 -14 10 -15 -2 -4
-18 15 -34 16 -24 0 4 -7 3 -8 -4 -4 -16 10 -54 -12 -46 -26 4 -6 3 -8 -3 -5
-11 7 -191 -86 -208 -107 -5 -7 -14 -15 -20 -17 -5 -2 -9 -8 -7 -12 1 -5 -2
-6 -8 -2 -5 3 -29 -5 -52 -19 -38 -23 -43 -32 -15 -27 5 1 6 -3 2 -9 -5 -8
-11 -8 -20 0 -11 9 -21 7 -44 -6 -16 -10 -27 -22 -24 -27 3 -6 1 -7 -6 -3 -6
4 -25 -2 -41 -14 l-31 -22 3 98 3 98 245 141 c135 78 346 200 470 271 124 72
345 199 491 283 l266 154 6 186 c4 102 7 245 7 316 0 200 20 238 162 319 l73
42 3 1952 c1 1074 -1 1952 -5 1952 -5 0 -44 -22 -88 -49z m-197 -843 c-3 -31
-15 -39 -302 -205 -165 -95 -305 -173 -313 -173 -7 0 -13 11 -13 25 0 29 2 30
270 186 107 62 229 132 270 156 41 23 78 43 83 43 5 0 7 -14 5 -32z m-688
-396 c0 -29 -32 -52 -215 -157 -93 -54 -213 -123 -265 -153 -52 -30 -201 -115
-330 -189 -129 -74 -255 -148 -280 -163 -25 -15 -65 -39 -90 -52 -25 -14 -90
-51 -145 -83 -55 -32 -228 -132 -385 -223 -157 -91 -301 -174 -320 -184 -39
-20 -56 -12 -47 24 5 17 36 40 114 85 59 34 191 109 293 168 287 167 302 176
350 203 25 13 97 55 160 92 63 37 212 122 330 190 118 68 267 154 330 191 289
170 466 269 483 269 10 0 17 -7 17 -18z m-116 -321 c19 -30 -18 -61 -208 -170
-112 -64 -203 -111 -211 -107 -20 7 -19 29 3 55 18 22 379 231 399 231 6 0 14
-4 17 -9z m466 -10 c0 -10 -8 -28 -17 -39 -21 -24 -380 -232 -400 -232 -10 0
-13 10 -11 32 3 31 13 38 198 145 107 62 203 113 213 113 10 0 17 -7 17 -19z
m-2155 -133 c-75 -316 -97 -408 -102 -431 -6 -29 -43 -59 -43 -35 0 26 103
463 113 476 17 21 38 14 32 -10z m505 -33 c0 -31 -19 -55 -44 -55 -11 0 -6 66
6 78 23 23 38 13 38 -23z m-413 -37 c18 -18 33 -41 33 -52 0 -25 -61 -165 -72
-166 -14 0 -8 60 8 92 16 31 12 78 -6 78 -6 0 -10 18 -10 40 0 22 3 40 7 40 4
0 22 -14 40 -32z m301 -59 c-25 -16 -38 -9 -38 20 0 20 8 35 23 46 22 15 22
15 25 -21 2 -23 -2 -40 -10 -45z m1872 58 c0 -33 -10 -40 -220 -162 -102 -59
-214 -124 -250 -145 -36 -21 -157 -91 -270 -155 -113 -65 -238 -138 -278 -161
-40 -24 -75 -44 -78 -44 -2 0 -21 -11 -42 -24 -20 -13 -215 -126 -432 -251
-217 -125 -412 -238 -432 -251 -67 -43 -103 -23 -55 30 12 14 135 90 272 169
138 79 311 179 385 222 165 96 179 103 520 300 151 87 304 175 340 195 36 21
121 70 190 110 69 40 139 81 155 90 17 10 61 36 100 59 80 47 95 50 95 18z
m-1960 -70 c0 -34 -15 -57 -37 -57 -19 0 -16 50 4 72 24 26 33 22 33 -15z
m900 -10 c0 -13 -8 -31 -17 -39 -18 -15 -233 -141 -693 -405 -129 -75 -260
-150 -290 -168 -307 -182 -462 -267 -473 -256 -23 23 6 62 73 101 36 20 110
63 165 95 55 32 307 177 560 323 253 146 501 289 550 318 101 60 125 66 125
31z m460 -1 c0 -38 16 -29 -755 -471 -88 -51 -194 -112 -235 -136 -41 -24
-162 -94 -269 -156 -107 -62 -198 -113 -203 -113 -16 0 -21 31 -9 53 7 13 35
35 64 51 29 16 131 75 227 131 96 56 200 116 230 133 30 16 249 143 485 281
237 137 438 250 448 250 12 1 17 -7 17 -23z m-1856 -81 c-3 -11 -12 -37 -21
-58 -15 -34 -15 -38 0 -55 18 -19 24 -82 8 -82 -16 0 -71 58 -71 75 0 9 16 51
35 93 27 58 38 73 45 62 5 -8 7 -24 4 -35z m2690 -493 c11 -19 -8 -53 -43 -73
-109 -66 -363 -209 -370 -209 -5 0 -11 6 -14 13 -10 27 15 56 85 96 40 22 127
72 193 111 119 69 139 78 149 62z m-986 -46 c5 -24 -22 -51 -82 -84 -28 -16
-152 -87 -276 -159 -338 -196 -557 -322 -635 -366 -38 -22 -123 -71 -188 -109
-113 -67 -158 -80 -143 -42 3 9 6 20 6 24 0 8 49 39 155 100 17 9 80 45 140
80 114 65 129 74 355 205 488 284 646 373 655 371 6 -1 12 -10 13 -20z m984
-246 c-1 -13 -6 -28 -10 -31 -6 -6 -872 -507 -1302 -754 -69 -40 -278 -161
-465 -269 -917 -533 -978 -567 -987 -558 -18 18 1 60 34 80 18 10 123 71 233
135 110 63 342 197 515 297 173 100 378 219 455 263 347 200 988 572 1275 740
118 69 224 125 235 124 15 -2 19 -8 17 -27z m-482 -3 c0 -32 -13 -42 -175
-134 -77 -44 -194 -111 -260 -150 -66 -38 -226 -131 -355 -205 -434 -250 -564
-325 -760 -439 -255 -147 -282 -161 -293 -150 -15 15 0 54 25 70 13 8 138 80
278 161 277 159 646 372 890 513 85 49 236 136 335 192 99 56 203 116 230 133
62 38 85 40 85 9z m-500 -20 c0 -33 -12 -42 -205 -152 -264 -152 -473 -273
-675 -390 -414 -239 -431 -248 -443 -236 -23 23 16 62 118 120 113 65 460 265
800 462 427 246 405 236 405 196z m-1440 -30 c0 -13 -8 -31 -17 -39 -32 -28
-299 -178 -316 -178 -22 0 -23 43 -1 61 34 28 300 178 317 179 11 0 17 -8 17
-23z m2420 -212 c0 -29 2 -28 -275 -187 -110 -63 -245 -141 -300 -173 -55 -32
-203 -117 -330 -190 -126 -73 -268 -154 -315 -182 -290 -170 -770 -443 -779
-443 -17 0 -13 45 7 62 15 14 148 92 532 313 69 40 170 98 225 130 55 32 206
118 335 193 129 74 291 167 360 207 69 40 202 116 295 170 94 54 179 104 190
111 32 22 55 18 55 -11z m-2420 -49 c0 -33 -17 -49 -99 -98 -138 -82 -223
-128 -237 -128 -15 0 -19 37 -6 57 11 18 304 183 325 183 9 0 17 -6 17 -14z
m2418 -218 c-3 -30 -12 -38 -118 -99 -104 -59 -397 -230 -650 -377 -52 -30
-121 -70 -152 -89 -32 -18 -84 -48 -115 -66 -32 -19 -143 -83 -248 -144 -104
-60 -305 -176 -445 -258 -140 -81 -298 -173 -350 -203 -52 -30 -163 -95 -247
-143 -83 -49 -156 -89 -162 -89 -18 0 -13 45 7 62 17 16 151 98 158 98 3 0 48
26 102 58 53 32 162 96 242 142 80 46 235 136 345 200 110 64 301 175 425 247
942 546 920 533 950 552 52 33 245 141 253 141 5 0 7 -14 5 -32z m-2423 -39
c4 -5 4 -21 1 -34 -4 -17 -45 -46 -162 -114 -86 -50 -163 -91 -170 -91 -15 0
-19 37 -5 58 8 13 309 191 323 192 4 0 10 -5 13 -11z m0 -270 c11 -16 -13 -63
-38 -75 -12 -6 -82 -46 -156 -88 -139 -81 -166 -87 -145 -30 7 19 48 48 164
115 85 49 158 89 162 89 4 0 10 -5 13 -11z m2425 -224 c0 -30 -1 -30 -290
-197 -312 -181 -326 -188 -333 -181 -14 13 -6 40 16 60 19 18 307 188 467 276
30 17 66 39 79 49 35 26 61 24 61 -7z m-690 -128 c0 -31 -27 -54 -140 -117
-52 -29 -160 -91 -240 -138 -80 -47 -224 -131 -320 -187 -96 -55 -356 -206
-578 -334 -283 -164 -407 -230 -414 -223 -35 35 -13 49 647 433 356 205 694
401 753 435 59 33 123 70 142 81 143 84 150 86 150 50z m690 -146 c0 -33 -31
-56 -225 -167 -104 -59 -286 -163 -404 -231 -118 -67 -218 -120 -222 -117 -16
10 -9 40 14 61 19 18 160 101 630 370 71 40 139 80 150 88 30 21 57 19 57 -4z
m-690 -119 c0 -38 14 -29 -580 -372 -80 -46 -210 -122 -290 -168 -80 -47 -158
-93 -175 -102 -16 -9 -106 -61 -200 -115 -353 -205 -335 -197 -335 -156 0 33
2 34 425 278 309 178 594 343 865 502 140 82 263 149 273 150 10 1 17 -6 17
-17z m-1430 -26 c0 -13 -6 -28 -12 -34 -28 -23 -342 -202 -354 -202 -19 0 -18
44 1 60 33 27 331 198 348 199 11 1 17 -6 17 -23z m2120 -126 c0 -10 -9 -27
-19 -37 -17 -15 -280 -169 -708 -414 -57 -33 -110 -59 -118 -59 -18 0 -19 29
-2 51 7 9 104 69 217 134 113 65 253 146 313 181 59 35 109 64 111 64 1 0 41
22 87 50 91 54 119 61 119 30z m-982 -296 c2 -11 -7 -29 -20 -40 -13 -12 -147
-92 -298 -179 -344 -198 -489 -281 -659 -380 -144 -83 -162 -93 -260 -149 -61
-35 -91 -40 -91 -16 0 26 23 49 72 75 28 15 63 35 77 45 14 10 168 99 341 198
173 98 387 221 475 272 88 51 201 117 250 146 50 28 95 51 100 50 6 -2 11 -11
13 -22z m2 -267 c0 -32 -15 -44 -165 -130 -71 -40 -191 -109 -265 -152 -150
-87 -417 -241 -675 -390 -93 -54 -178 -103 -187 -109 -13 -8 -21 -7 -29 1 -27
27 8 59 163 148 84 48 189 109 233 135 44 26 159 92 255 147 96 56 281 162
410 237 129 75 241 136 248 136 6 0 12 -11 12 -23z m935 -87 c-3 -5 -12 -10
-18 -10 -7 0 -6 4 3 10 19 12 23 12 15 0z m-80 -60 c3 -5 2 -10 -4 -10 -5 0
-13 5 -16 10 -3 6 -2 10 4 10 5 0 13 -4 16 -10z m-55 -27 c0 -3 -6 -3 -12 0
-7 2 -22 0 -33 -5 -19 -9 -19 -8 -2 6 17 13 47 12 47 -1z m-67 -30 c3 -5 -6
-9 -20 -10 -19 -1 -22 1 -12 8 17 11 26 11 32 2z m-45 -32 c10 -6 9 -10 -7
-14 -21 -5 -36 5 -24 17 8 8 15 7 31 -3z m-155 -85 c4 -10 1 -13 -8 -9 -8 3
-12 9 -9 14 7 12 11 11 17 -5z m-36 -11 c0 -8 -4 -12 -9 -9 -5 3 -6 10 -3 15
9 13 12 11 12 -6z m-81 -61 c-3 -22 -14 -26 -33 -14 -15 9 -15 10 7 4 21 -6
23 -5 13 8 -10 12 -10 15 1 15 8 0 13 -6 12 -13z m-41 -74 c3 -5 -3 -10 -15
-10 -12 0 -18 5 -15 10 3 6 10 10 15 10 5 0 12 -4 15 -10z m-118 -14 c0 -8 -6
-12 -15 -9 -11 5 -11 7 0 14 7 5 13 9 14 9 0 0 1 -6 1 -14z m-1702 -67 c4 -5
4 -21 1 -34 -4 -17 -45 -46 -162 -114 -86 -50 -163 -91 -170 -91 -15 0 -19 37
-6 56 6 11 58 42 247 152 77 45 81 47 90 31z m1625 7 c0 -2 -8 -10 -17 -17
-16 -13 -17 -12 -4 4 13 16 21 21 21 13z m-44 -31 c17 -16 14 -18 -10 -9 -9 3
-16 10 -16 15 0 13 9 11 26 -6z m-121 -55 c3 -6 -1 -7 -9 -4 -18 7 -21 14 -7
14 6 0 13 -4 16 -10z m-180 -80 c-3 -5 -12 -10 -18 -10 -7 0 -6 4 3 10 19 12
23 12 15 0z m1083 -139 c3 -82 -10 -127 -39 -136 -32 -11 -39 4 -39 81 0 89
19 137 53 132 20 -3 22 -10 25 -77z m-2360 12 c2 -13 -5 -29 -18 -40 -29 -25
-302 -182 -318 -182 -9 -1 -12 10 -10 31 3 30 13 39 158 124 85 51 162 92 170
91 8 -1 16 -12 18 -24z m1032 -57 c0 -2 -7 -7 -16 -10 -8 -3 -12 -2 -9 4 6 10
25 14 25 6z m1040 -206 c20 0 9 -27 -15 -38 -33 -15 -42 -15 -27 0 16 16 16
168 0 168 -6 0 -3 9 8 21 19 21 19 21 22 -65 1 -47 7 -86 12 -86z m-1255 41
c-3 -6 -11 -11 -16 -11 -5 0 -4 6 3 14 14 16 24 13 13 -3z m1525 -186 c6 4 10
2 10 -4 0 -14 -49 -45 -58 -37 -3 4 -1 10 5 14 18 11 20 152 2 163 -11 7 -10
11 6 23 20 14 20 12 23 -75 2 -54 7 -87 12 -84z m-540 69 c0 -49 4 -84 10 -84
19 0 10 -15 -20 -32 -25 -14 -30 -15 -30 -3 0 8 5 15 10 15 15 0 13 157 -2
162 -9 3 -8 9 2 20 24 26 30 11 30 -78z m-246 -70 c10 -25 7 -128 -4 -161 -11
-30 -55 -60 -64 -44 -12 18 -18 93 -11 136 9 66 62 112 79 69z m-284 -324 c6
0 10 -4 10 -8 0 -12 -51 -34 -59 -26 -3 4 0 9 7 11 8 3 12 30 12 84 0 51 -4
78 -10 74 -18 -11 -11 17 8 31 16 12 17 6 20 -77 1 -49 7 -89 12 -89z m820
-13 c6 -79 -2 -117 -30 -142 -17 -15 -22 -16 -36 -4 -24 20 -17 169 10 198 35
38 50 23 56 -52z m-560 -42 c0 -50 4 -85 10 -85 19 0 10 -15 -20 -32 -25 -14
-30 -15 -30 -3 0 8 5 15 10 15 15 0 13 143 -2 158 -10 10 -10 15 2 22 27 17
30 11 30 -75z m270 -140 c0 -52 4 -86 11 -91 8 -4 2 -12 -15 -21 -15 -8 -31
-11 -34 -7 -4 4 -1 9 6 11 15 6 17 163 2 163 -6 0 -5 8 2 19 20 33 28 13 28
-74z m3762 -286 c6 -4 0 -14 -16 -24 -15 -10 -30 -14 -34 -10 -4 4 -1 10 6 12
8 3 12 29 12 83 0 53 -4 80 -12 84 -9 3 -7 10 7 21 20 16 20 14 23 -72 2 -49
8 -90 14 -94z m-3204 22 c3 -82 -10 -127 -39 -136 -32 -11 -39 4 -39 81 0 89
19 137 53 132 20 -3 22 -10 25 -77z m-1073 -42 c0 -71 -3 -91 -19 -108 -11
-12 -25 -21 -33 -21 -22 0 -35 50 -30 113 6 69 29 110 60 105 21 -3 22 -8 22
-89z m4565 -19 c0 -69 -15 -117 -42 -131 -33 -18 -43 4 -43 92 0 77 1 82 29
106 28 24 30 24 43 7 7 -10 13 -43 13 -74z m-1097 -422 c14 -10 -17 -38 -41
-38 -13 0 -12 3 1 18 19 21 25 152 7 152 -14 0 -12 28 3 33 9 3 13 -18 15 -77
2 -49 8 -84 15 -88z m-2665 25 c3 -94 -14 -136 -52 -131 -18 3 -21 11 -24 63
-5 103 16 161 57 153 13 -3 17 -19 19 -85z m-540 65 c17 -17 15 -131 -2 -173
-11 -26 -21 -35 -39 -35 -29 0 -37 16 -37 75 0 62 10 101 32 124 22 24 29 26
46 9z m3490 -140 c2 -77 0 -90 -18 -108 -39 -39 -55 -23 -58 55 -2 38 -1 79 3
92 7 29 34 55 54 51 13 -3 17 -19 19 -90z m-2698 -158 c18 0 10 -18 -16 -35
-29 -19 -43 -13 -24 10 17 20 14 146 -3 158 -9 5 -6 12 8 23 20 15 20 13 23
-71 1 -47 7 -85 12 -85z m-540 71 c0 -58 4 -91 11 -93 7 -2 -1 -12 -16 -22
-28 -18 -47 -14 -27 6 17 17 16 155 0 161 -10 3 -10 7 1 20 25 31 31 17 31
-72z m2152 -332 c6 -4 0 -14 -16 -24 -15 -10 -30 -14 -34 -10 -4 4 -1 10 6 12
16 6 17 163 0 163 -6 0 -3 9 8 21 19 21 19 21 22 -67 2 -50 8 -91 14 -95z
m-1592 50 c0 -67 -3 -82 -23 -105 -17 -19 -29 -25 -41 -21 -16 6 -18 19 -14
98 3 81 5 93 27 110 38 31 51 10 51 -82z m-1082 59 c15 -15 16 -124 1 -167
-13 -37 -45 -59 -62 -42 -13 13 -16 122 -4 163 7 27 32 58 46 58 4 0 12 -5 19
-12z m2950 -70 c15 -15 16 -124 1 -167 -13 -36 -38 -54 -60 -41 -10 7 -14 30
-14 89 1 71 4 84 25 106 27 28 31 30 48 13z m-2699 -91 c-6 -46 3 -157 11
-152 23 14 8 -14 -16 -30 -27 -18 -46 -13 -26 7 17 17 16 155 0 161 -10 3 -10
7 1 20 14 18 33 14 30 -6z m1612 -330 c3 -86 1 -100 -15 -109 -21 -12 -34 -2
-18 14 15 15 16 148 2 148 -16 0 -12 22 7 36 10 7 19 12 20 11 1 -1 3 -46 4
-100z m-1051 -21 c0 -69 -3 -86 -20 -104 -46 -49 -65 -17 -58 99 3 60 8 74 27
90 38 31 51 10 51 -85z m-534 58 c11 -44 -2 -153 -21 -174 -29 -32 -53 -25
-61 16 -9 48 2 131 21 160 21 32 53 31 61 -2z m1878 -96 c11 -43 5 -123 -12
-158 -22 -45 -58 -53 -68 -15 -12 47 0 152 20 174 25 27 52 27 60 -1z m2496
-33 c11 -13 10 -14 -4 -9 -9 3 -16 10 -16 15 0 13 6 11 20 -6z m-4130 -80 c0
-61 4 -85 13 -85 6 0 -1 -12 -17 -26 -27 -24 -52 -26 -28 -2 17 17 16 155 0
161 -10 3 -10 7 1 20 25 31 31 18 31 -68z m-4132 -5 c4 -36 -30 -84 -79 -112
-24 -13 -171 -98 -326 -187 -300 -172 -329 -184 -327 -125 1 17 9 43 18 57 13
20 159 111 256 160 8 4 103 59 210 122 206 121 242 134 248 85z m4675 -362 c9
-6 5 -14 -12 -28 -25 -22 -41 -26 -41 -10 0 6 5 10 10 10 15 0 13 157 -2 163
-9 3 -7 10 7 24 20 20 20 20 23 -66 2 -53 7 -88 15 -93z m-1057 127 c12 -47
-1 -152 -20 -174 -26 -29 -54 -27 -62 5 -10 38 4 144 21 171 21 31 53 30 61
-2z m3301 -21 c-3 -3 -12 -4 -19 -1 -8 3 -5 6 6 6 11 1 17 -2 13 -5z m-1962
-163 c0 -86 -2 -94 -24 -112 -38 -31 -51 -10 -51 78 0 93 21 137 60 130 12 -2
15 -21 15 -96z m1400 -161 c3 -6 -1 -7 -9 -4 -18 7 -21 14 -7 14 6 0 13 -4 16
-10z m-2496 -157 c1 -49 6 -89 11 -91 6 -2 10 -7 10 -11 0 -11 -51 -33 -59
-25 -3 4 0 9 7 11 8 3 12 29 12 83 0 54 -4 80 -12 83 -9 3 -7 10 7 21 11 8 21
16 21 16 1 0 2 -39 3 -87z m2337 58 c0 -11 -5 -17 -13 -14 -10 4 -11 9 -2 19
15 18 15 18 15 -5z m5938 -100 c3 -5 -1 -11 -9 -14 -9 -4 -12 -1 -8 9 6 16 10
17 17 5z m-7984 -20 c15 -28 12 -126 -4 -165 -13 -31 -50 -56 -63 -42 -10 10
-16 103 -9 139 7 36 40 87 56 87 5 0 14 -9 20 -19z m6897 -483 c-3 -8 -6 -5
-6 6 -1 11 2 17 5 13 3 -3 4 -12 1 -19z m-6942 -1038 c3 -6 -1 -7 -9 -4 -18 7
-21 14 -7 14 6 0 13 -4 16 -10z m1830 -690 c-3 -5 -11 -10 -16 -10 -6 0 -7 5
-4 10 3 6 11 10 16 10 6 0 7 -4 4 -10z"/>
<path d="M10052 11388 c-14 -14 -17 -154 -3 -162 25 -16 49 75 37 139 -7 37
-15 42 -34 23z"/>
<path d="M9240 10911 c-13 -25 -13 -121 0 -141 9 -13 12 -12 25 4 21 28 21
156 0 156 -8 0 -19 -9 -25 -19z"/>
<path d="M9782 10638 c-18 -18 -16 -158 2 -158 27 0 48 108 30 154 -7 19 -16
20 -32 4z"/>
<path d="M10052 10208 c-14 -14 -17 -154 -3 -162 24 -15 47 71 36 135 -7 41
-14 46 -33 27z"/>
<path d="M8979 10174 c-16 -19 -24 -111 -12 -143 9 -22 10 -22 26 -6 13 12 17
34 17 85 0 72 -9 90 -31 64z"/>
<path d="M13531 10141 c-15 -27 -14 -138 1 -147 23 -14 39 29 36 95 -3 67 -18
88 -37 52z"/>
<path d="M9780 9751 c-13 -25 -13 -161 -1 -161 20 0 41 46 41 90 0 81 -18 112
-40 71z"/>
<path d="M9240 9724 c-13 -34 -13 -131 0 -139 6 -4 17 -1 25 5 22 18 21 160 0
160 -9 0 -20 -12 -25 -26z"/>
<path d="M12732 9688 c-14 -14 -17 -154 -3 -162 30 -19 56 121 29 157 -11 14
-16 15 -26 5z"/>
<path d="M10046 9313 c-8 -27 -10 -142 -3 -149 27 -27 57 69 42 136 -7 33 -30
40 -39 13z"/>
<path d="M8970 9274 c-16 -42 -13 -134 5 -141 25 -9 30 4 34 88 3 68 1 79 -13
79 -9 0 -21 -12 -26 -26z"/>
<path d="M11920 9204 c-12 -32 -13 -114 -1 -133 8 -12 12 -12 25 -2 23 19 23
161 1 161 -9 0 -20 -12 -25 -26z"/>
<path d="M9782 8868 c-7 -7 -12 -42 -12 -85 0 -59 3 -73 15 -73 20 0 35 40 35
95 0 68 -12 89 -38 63z"/>
<path d="M9246 8848 c-19 -27 -22 -143 -4 -154 21 -13 38 28 38 97 0 74 -10
91 -34 57z"/>
<path d="M11121 8751 c-14 -25 -14 -148 -1 -156 21 -13 41 42 38 106 -3 65
-18 86 -37 50z"/>
<path d="M8976 8398 c-18 -25 -22 -124 -6 -148 20 -29 40 17 40 91 0 74 -10
91 -34 57z"/>
<path d="M10314 8289 c-11 -19 -16 -133 -5 -148 8 -12 12 -12 25 -2 22 18 23
161 2 161 -8 0 -18 -5 -22 -11z"/>
<path d="M9511 7821 c-15 -27 -14 -138 1 -147 23 -14 39 29 36 95 -3 67 -18
88 -37 52z"/>
<path d="M9727 17072 c-47 -52 -63 -160 -26 -185 30 -22 57 -10 84 38 25 41
33 112 19 149 -8 22 -57 20 -77 -2z"/>
<path d="M3665 16529 c-4 -6 -5 -12 -2 -15 2 -3 7 2 10 11 7 17 1 20 -8 4z"/>
<path d="M6140 15562 c-36 -21 -130 -76 -210 -122 -264 -152 -330 -192 -330
-202 0 -10 6 -7 360 199 291 169 280 162 260 162 -8 1 -44 -16 -80 -37z"/>
<path d="M6100 15057 c-30 -18 -132 -77 -227 -131 -141 -81 -174 -104 -182
-128 -6 -16 -7 -36 -4 -46 7 -20 219 -319 232 -326 4 -3 15 0 24 7 21 16 249
603 245 630 -5 32 -27 31 -88 -6z"/>
<path d="M6695 14551 c-44 -26 -174 -103 -290 -170 -250 -144 -241 -138 -234
-146 3 -3 71 32 150 78 79 46 216 126 304 176 167 97 189 111 165 111 -8 0
-51 -22 -95 -49z"/>
<path d="M5628 14561 c17 -10 14 -13 -125 -91 -62 -35 -113 -67 -113 -72 0
-13 3 -12 131 63 87 51 124 67 129 59 6 -9 11 -7 19 8 18 33 13 42 -21 42 -21
0 -28 -3 -20 -9z"/>
<path d="M5931 14207 c-1 -96 -5 -146 -11 -142 -14 9 -13 -18 2 -33 9 -9 16
-8 30 5 20 18 24 34 7 31 -7 -2 -11 37 -10 122 0 69 -4 134 -9 145 -5 13 -9
-33 -9 -128z"/>
<path d="M3615 14282 c-16 -10 -154 -90 -305 -177 -306 -175 -286 -163 -277
-171 3 -4 39 13 80 37 41 24 180 105 310 179 130 74 236 138 237 143 0 11 -13
8 -45 -11z"/>
<path d="M4070 14094 c0 -127 -3 -193 -10 -189 -14 9 -13 -18 2 -33 9 -9 16
-8 30 5 19 17 25 39 8 28 -7 -4 -10 62 -10 189 0 124 -4 196 -10 196 -6 0 -10
-72 -10 -196z"/>
<path d="M5295 14061 c-6 -6 -68 -43 -140 -84 -164 -93 -449 -258 -453 -262
-2 -2 0 -5 5 -8 5 -3 33 9 63 27 30 18 170 99 310 181 140 81 257 149 259 151
2 2 -5 4 -15 4 -11 0 -24 -4 -29 -9z"/>
<path d="M4653 13997 c4 -10 -25 -32 -101 -75 -114 -65 -153 -91 -137 -92 6 0
66 32 134 70 67 39 125 70 128 70 2 0 1 -5 -3 -11 -4 -7 -1 -10 7 -7 8 3 14
16 14 29 0 18 -6 25 -24 27 -18 3 -22 0 -18 -11z"/>
<path d="M16315 13760 c-126 -23 -191 -29 -306 -29 -175 -1 -232 -15 -284 -68
-49 -50 -72 -131 -56 -192 6 -24 21 -57 32 -73 l21 -29 -20 -22 c-45 -48 -56
-144 -24 -207 15 -31 92 -100 111 -100 5 0 11 28 14 63 8 81 41 208 69 264 20
39 24 43 33 28 44 -76 117 -119 230 -137 113 -17 233 5 408 77 14 6 17 2 17
-20 0 -42 56 -138 122 -207 l59 -63 -6 -56 c-12 -104 27 -239 74 -254 31 -9
45 3 80 71 28 54 42 70 75 85 23 10 51 19 64 19 18 0 27 11 43 47 48 112 61
238 35 346 -13 57 -56 131 -80 140 -7 3 -16 28 -20 56 -9 68 -30 114 -73 162
-49 55 -105 85 -198 109 -108 28 -224 25 -420 -10z"/>
<path d="M6605 13609 c-93 -55 -230 -133 -302 -175 -73 -42 -133 -80 -133 -85
0 -5 2 -9 4 -9 3 0 305 174 524 302 56 33 102 62 102 64 0 13 -43 -9 -195 -97z"/>
<path d="M5520 13425 c-69 -40 -126 -69 -128 -64 -7 17 -20 9 -24 -15 -4 -18
0 -26 15 -30 24 -6 44 3 29 13 -6 4 43 37 109 75 110 63 137 82 128 90 -2 2
-60 -30 -129 -69z"/>
<path d="M5930 13227 l0 -75 -87 -49 c-49 -27 -200 -115 -338 -195 -137 -79
-432 -250 -655 -378 -446 -257 -678 -392 -727 -422 l-33 -20 0 97 c0 61 4 94
10 90 16 -10 12 15 -5 32 -12 12 -19 13 -30 3 -17 -14 -21 -45 -5 -35 6 4 10
-32 10 -99 0 -58 2 -106 5 -106 11 0 71 33 293 161 122 71 322 187 445 258
294 170 710 410 927 534 96 55 182 106 190 113 18 16 27 149 10 159 -6 4 -10
-19 -10 -68z"/>
<path d="M3860 13221 c-50 -31 -104 -62 -370 -216 -203 -117 -196 -113 -188
-121 4 -3 61 26 127 65 241 141 357 209 423 245 37 21 70 42 74 47 10 17 -21
8 -66 -20z"/>
<path d="M15884 13098 c-25 -12 -46 -51 -38 -72 5 -12 14 -11 62 6 74 28 78
32 53 57 -23 23 -44 25 -77 9z"/>
<path d="M16362 13094 c-12 -8 -22 -19 -22 -23 0 -12 120 -62 131 -55 17 10 9
45 -16 69 -28 29 -61 32 -93 9z"/>
<path d="M15912 12947 c-30 -14 -38 -51 -18 -82 31 -47 96 -23 96 34 0 43 -38
66 -78 48z"/>
<path d="M4560 12870 c-77 -45 -117 -64 -122 -56 -6 8 -11 7 -18 -4 -14 -22
-12 -37 6 -44 25 -10 37 -7 31 8 -4 9 30 34 103 75 126 73 152 91 130 90 -8 0
-67 -31 -130 -69z"/>
<path d="M16332 12928 c-20 -20 -15 -76 7 -88 49 -26 99 7 86 57 -3 15 -12 31
-18 35 -18 12 -62 9 -75 -4z"/>
<path d="M6343 12864 c-24 -14 -43 -31 -43 -36 0 -5 20 2 45 16 l45 27 0 -23
c0 -183 0 -876 0 -884 0 -17 -77 -57 -82 -42 -3 8 -10 4 -17 -11 -11 -19 -11
-25 0 -32 21 -13 42 -11 36 4 -3 9 11 22 39 35 l44 22 0 475 c0 374 -3 475
-12 475 -7 -1 -32 -12 -55 -26z"/>
<path d="M16330 12565 c-100 -37 -130 -54 -124 -70 4 -10 14 -14 28 -10 11 2
15 2 8 -1 -6 -3 -10 -10 -6 -15 6 -11 35 -12 32 -1 -9 42 50 96 104 94 15 0
26 4 23 9 -8 12 -22 11 -65 -6z"/>
<path d="M16809 12524 c0 -10 -1 -49 -2 -86 -1 -37 1 -64 4 -60 12 12 62 113
58 115 -2 1 -16 13 -31 26 -26 23 -28 23 -29 5z"/>
<path d="M5566 12441 c-3 -5 -1 -11 5 -13 6 -2 -46 -37 -117 -78 -70 -40 -123
-75 -117 -77 6 -2 64 26 128 63 93 54 118 65 125 54 7 -11 11 -8 20 14 6 16 9
30 8 31 -12 10 -47 14 -52 6z"/>
<path d="M3698 12373 c-29 -16 -49 -35 -52 -49 -8 -31 -7 -999 1 -1019 4 -13
14 -11 58 14 37 21 55 26 58 18 2 -7 9 -2 16 11 14 27 14 27 -18 37 -17 5 -22
4 -19 -6 4 -11 -60 -59 -78 -59 -2 0 -4 227 -4 504 l0 504 50 31 c47 29 60 41
43 41 -5 0 -29 -12 -55 -27z"/>
<path d="M5922 12328 c-15 -15 -16 -32 -2 -23 6 4 10 -31 10 -98 l0 -104 -192
-111 c-106 -60 -233 -134 -283 -163 -49 -29 -130 -76 -180 -104 -49 -28 -148
-85 -220 -127 -71 -41 -220 -127 -331 -191 -111 -64 -297 -172 -415 -240
l-214 -124 -3 61 c-5 95 -22 93 -22 -2 0 -45 3 -82 8 -82 7 0 233 128 587 332
447 259 910 526 1075 620 96 56 182 107 191 115 14 11 17 33 16 109 0 70 3 98
13 104 11 7 11 11 1 24 -16 19 -23 20 -39 4z"/>
<path d="M15810 12035 c-146 -41 -312 -135 -795 -450 -82 -54 -153 -101 -158
-104 -4 -4 15 -30 42 -58 87 -91 155 -240 183 -405 l13 -77 236 111 235 110
12 187 c24 396 119 586 339 677 l58 24 -60 -1 c-33 0 -80 -7 -105 -14z"/>
<path d="M17173 11893 c-57 -123 -68 -176 -67 -333 0 -146 19 -246 70 -378 50
-131 83 -219 137 -367 30 -82 63 -171 73 -197 l18 -48 66 0 c112 0 271 43 397
106 62 31 117 62 122 68 7 8 7 24 1 47 -6 19 -28 102 -51 184 -91 336 -203
683 -247 769 -60 114 -162 175 -361 215 -57 12 -106 21 -110 21 -4 0 -26 -39
-48 -87z"/>
<path d="M2748 11953 c7 -3 16 -2 19 1 4 3 -2 6 -13 5 -11 0 -14 -3 -6 -6z"/>
<path d="M4600 11880 c0 -5 6 -10 12 -10 7 0 -43 -32 -112 -71 -131 -74 -153
-89 -130 -89 7 0 67 32 132 70 123 72 134 78 122 59 -4 -7 -1 -10 7 -7 19 6
24 39 7 49 -18 12 -38 11 -38 -1z"/>
<path d="M1950 11597 c0 -180 3 -247 13 -258 15 -19 93 -69 107 -69 6 0 10 87
10 253 l0 252 -56 33 c-31 17 -60 32 -65 32 -5 0 -9 -102 -9 -243z"/>
<path d="M2565 11580 c-3 -6 1 -7 9 -4 18 7 21 14 7 14 -6 0 -13 -4 -16 -10z"/>
<path d="M2300 11490 c-9 -6 -10 -10 -3 -10 6 0 15 5 18 10 8 12 4 12 -15 0z"/>
<path d="M5492 11435 c-117 -67 -128 -72 -117 -55 3 6 2 10 -4 10 -12 0 -24
-37 -16 -50 9 -15 48 -12 42 3 -3 9 35 36 109 78 100 57 131 79 107 79 -5 0
-59 -29 -121 -65z"/>
<path d="M3659 11100 c-123 -71 -261 -150 -306 -175 -46 -26 -83 -51 -83 -57
0 -11 28 4 356 194 242 139 286 167 268 167 -6 1 -111 -57 -235 -129z"/>
<path d="M14080 11060 c-47 -27 -85 -54 -85 -61 0 -6 47 -36 105 -66 58 -30
133 -71 168 -90 l62 -35 0 79 0 78 -73 73 c-40 39 -77 72 -83 72 -5 0 -47 -23
-94 -50z"/>
<path d="M1956 10853 c-8 -8 -7 -468 1 -489 5 -15 94 -74 111 -74 7 0 11 76
12 253 l1 252 -59 32 c-33 18 -62 30 -66 26z"/>
<path d="M14537 10092 c-32 -35 -14 -96 51 -179 55 -69 124 -113 178 -113 29
0 44 5 48 16 30 78 -60 213 -179 270 -60 29 -77 30 -98 6z"/>
<path d="M2770 9890 c-9 -6 -10 -10 -3 -10 6 0 15 5 18 10 8 12 4 12 -15 0z"/>
<path d="M1950 9643 c0 -131 3 -247 6 -258 6 -22 93 -75 123 -75 11 0 23 4 26
10 3 6 -1 7 -9 4 -14 -5 -16 22 -16 242 l0 249 -57 30 c-31 17 -60 32 -65 33
-4 2 -8 -104 -8 -235z"/>
<path d="M2491 9854 c0 -11 3 -14 6 -6 3 7 2 16 -1 19 -3 4 -6 -2 -5 -13z"/>
<path d="M2260 9836 c0 -2 8 -10 18 -17 15 -13 16 -12 3 4 -13 16 -21 21 -21
13z"/>
<path d="M2318 9633 c7 -3 16 -2 19 1 4 3 -2 6 -13 5 -11 0 -14 -3 -6 -6z"/>
<path d="M2546 9578 c3 -5 10 -6 15 -3 13 9 11 12 -6 12 -8 0 -12 -4 -9 -9z"/>
<path d="M2306 9531 c-4 -5 3 -7 14 -4 23 6 26 13 6 13 -8 0 -17 -4 -20 -9z"/>
<path d="M2264 9414 c-18 -14 -18 -14 6 -3 31 14 36 19 24 19 -6 0 -19 -7 -30
-16z"/>
<path d="M1980 7436 c0 -2 8 -10 18 -17 15 -13 16 -12 3 4 -13 16 -21 21 -21
13z"/>
<path d="M3552 4323 c-10 -4 -12 -44 -11 -171 1 -92 5 -177 10 -190 12 -33 38
-39 199 -46 l145 -7 68 51 67 51 0 139 c0 76 -3 141 -7 143 -5 3 -75 10 -158
16 -224 16 -299 19 -313 14z"/>
<path d="M10275 4074 c-77 -25 -146 -53 -153 -62 -15 -20 -11 -127 5 -143 5
-5 70 -28 144 -50 74 -21 142 -44 152 -49 16 -10 17 1 17 170 0 138 -3 180
-12 180 -7 -1 -76 -21 -153 -46z"/>
<path d="M4575 3796 c-127 -61 -243 -114 -277 -126 -34 -12 -37 -17 -42 -59
-8 -72 -4 -351 5 -351 21 0 88 33 83 41 -3 5 1 6 9 3 18 -7 89 30 79 41 -4 5
-2 5 4 2 17 -10 200 78 208 99 8 20 6 341 -1 362 -7 16 -10 16 -68 -12z"/>
<path d="M5994 3796 c-3 -12 -4 -100 -2 -195 l3 -171 99 -45 c54 -24 103 -42
109 -38 6 3 7 2 4 -4 -8 -13 68 -47 84 -38 8 6 10 4 4 -5 -6 -10 -4 -12 9 -7
9 4 15 3 12 -2 -3 -4 6 -13 20 -20 53 -24 52 -25 53 174 0 183 -3 215 -20 215
-5 0 -34 12 -66 26 -32 15 -83 38 -113 51 -30 14 -83 38 -117 54 -34 16 -64
29 -67 29 -3 0 -8 -11 -12 -24z"/>
<path d="M7722 3544 c3 -148 5 -173 21 -188 10 -10 35 -44 56 -75 36 -52 77
-101 85 -101 7 0 -1 57 -9 70 -5 8 -4 15 1 17 5 2 8 56 6 125 -2 97 -6 126
-18 135 -9 6 -45 51 -80 100 l-65 88 3 -171z m96 -249 c-3 -3 -9 2 -12 12 -6
14 -5 15 5 6 7 -7 10 -15 7 -18z"/>
<path d="M10432 3680 c0 -19 2 -27 5 -17 2 9 2 25 0 35 -3 9 -5 1 -5 -18z"/>
<path d="M4991 3645 c-6 -173 1 -308 21 -417 12 -65 25 -118 28 -118 7 0 -5
373 -13 425 -4 22 -11 58 -17 80 -5 22 -11 49 -14 60 -2 11 -4 -2 -5 -30z"/>
<path d="M5622 3573 c-19 -96 -23 -149 -22 -285 1 -93 -2 -174 -6 -180 -4 -8
-3 -9 2 -5 19 17 45 188 52 335 4 83 5 152 2 152 -4 0 -4 15 -2 34 10 86 -5
56 -26 -51z"/>
<path d="M8241 3399 l0 -171 32 5 c17 3 26 3 19 0 -13 -5 18 -34 51 -46 15 -6
16 -1 12 41 -5 42 -1 57 39 137 51 103 57 87 -59 160 -38 25 -75 45 -81 45 -8
0 -12 -51 -13 -171z"/>
<path d="M9920 3402 l0 -168 170 -27 c128 -21 174 -25 190 -17 23 12 27 22 5
14 -17 -7 -17 -8 -15 191 l1 120 -163 28 c-90 15 -169 27 -175 27 -10 0 -13
-40 -13 -168z"/>
<path d="M8838 3241 l-97 -99 -3 -151 c-2 -96 1 -151 7 -151 6 0 3 -4 -5 -10
-8 -5 -12 -11 -9 -15 3 -3 18 4 33 16 22 17 25 24 14 31 -10 8 -9 9 4 5 11 -4
36 16 79 64 34 38 68 69 75 69 19 0 17 10 -3 26 -17 13 -17 14 0 8 16 -6 17 6
17 150 0 86 -3 156 -7 156 -5 -1 -52 -45 -105 -99z"/>
<path d="M9220 3312 c0 -15 -1 -91 -3 -170 -1 -78 2 -142 6 -142 4 0 50 -44
102 -97 52 -54 97 -94 101 -90 4 4 -1 14 -12 22 -11 9 -13 13 -4 10 13 -5 15
16 15 146 l-1 150 -41 32 c-22 18 -49 44 -59 60 -11 15 -25 25 -32 22 -7 -2
-11 1 -10 8 2 7 -12 27 -29 45 l-33 31 0 -27z m57 -308 c-3 -3 -12 -4 -19 -1
-8 3 -5 6 6 6 11 1 17 -2 13 -5z m67 -52 c3 -5 -1 -9 -9 -9 -8 0 -12 4 -9 9 3
4 7 8 9 8 2 0 6 -4 9 -8z"/>
<path d="M9768 2903 c7 -3 16 -2 19 1 4 3 -2 6 -13 5 -11 0 -14 -3 -6 -6z"/>
</g>
</svg>
