<?xml version="1.0" standalone="no"?>
<!DOCTYPE svg PUBLIC "-//W3C//DTD SVG 20010904//EN"
 "http://www.w3.org/TR/2001/REC-SVG-20010904/DTD/svg10.dtd">
<svg version="1.0" xmlns="http://www.w3.org/2000/svg"
 width="3000.000000pt" height="2000.000000pt" viewBox="0 0 3000.000000 2000.000000"
 preserveAspectRatio="xMidYMid meet">

<g transform="translate(0.000000,2000.000000) scale(0.100000,-0.100000)"
fill="#000000" stroke="none">
<path d="M17042 18368 c2 -214 6 -282 16 -286 9 -3 12 58 12 282 0 249 -2 286
-15 286 -13 0 -15 -36 -13 -282z"/>
<path d="M16320 18282 c0 -4 67 -75 150 -157 117 -116 152 -147 162 -137 9 9
-20 44 -132 157 -124 125 -180 168 -180 137z"/>
<path d="M17597 18132 c-86 -86 -157 -161 -157 -165 0 -4 8 -7 18 -7 19 0 322
298 322 318 0 30 -35 2 -183 -146z"/>
<path d="M17198 16600 c-77 -60 -76 -174 4 -588 l12 -63 -30 -24 c-78 -64
-185 -72 -271 -19 l-48 30 -7 142 c-8 166 -32 347 -55 403 -40 101 -129 104
-174 5 -23 -50 -25 -176 -5 -252 20 -75 80 -183 138 -249 50 -56 51 -59 50
-114 -4 -88 -32 -277 -57 -376 -23 -89 -21 -113 8 -102 24 9 86 310 87 417 0
19 3 45 6 57 l6 22 37 -24 c94 -62 191 -56 302 18 l27 18 17 -73 c10 -40 44
-155 77 -256 54 -168 61 -183 81 -180 26 4 28 -9 -28 158 -26 74 -61 191 -79
259 l-33 124 49 71 c68 99 100 203 101 326 1 123 -20 195 -72 250 -32 34 -44
40 -78 40 -25 0 -50 -8 -65 -20z m113 -51 c63 -68 79 -236 34 -376 -24 -76
-80 -181 -92 -170 -15 16 -73 362 -73 440 0 118 68 173 131 106z m-547 -91
c19 -52 42 -215 51 -363 7 -100 6 -108 -9 -96 -28 23 -103 144 -126 200 -42
106 -39 253 6 298 31 31 57 19 78 -39z"/>
<path d="M13389 15606 c-61 -17 -144 -56 -210 -98 -30 -19 -112 -62 -182 -96
-569 -272 -810 -613 -676 -954 45 -116 215 -325 323 -400 l31 -22 -22 25 c-56
62 -70 170 -30 229 35 52 80 74 156 74 56 1 74 -4 123 -31 l57 -32 44 49 c130
144 204 310 271 604 9 39 15 30 27 -45 15 -93 3 -216 -24 -238 -12 -9 -37 -31
-56 -49 -32 -31 -33 -34 -18 -50 15 -15 18 -14 42 8 30 28 31 21 5 -55 -11
-32 -18 -60 -15 -63 10 -10 121 66 179 124 101 100 148 209 149 341 0 84 4 85
80 8 62 -61 110 -165 77 -165 -16 0 -11 -40 6 -47 22 -8 12 -68 -21 -134 -14
-27 -22 -49 -19 -49 15 0 118 97 155 145 22 29 49 55 60 58 15 4 19 11 14 26
-3 11 2 46 11 77 31 109 5 222 -77 325 -22 27 -33 56 -40 101 -11 75 -43 169
-75 219 -31 50 -96 104 -143 117 -49 15 -143 14 -202 -2z"/>
<path d="M16235 15176 c-33 -34 -33 -79 1 -113 18 -18 22 -29 15 -36 -18 -18
-13 -85 8 -106 12 -12 16 -23 10 -32 -5 -8 -9 -30 -9 -50 0 -43 24 -69 64 -69
23 0 27 -3 21 -17 -16 -44 -17 -74 -1 -98 16 -24 21 -25 110 -25 l94 0 51 -64
c105 -135 257 -231 382 -242 158 -15 341 82 454 241 l47 65 92 0 c77 0 96 3
109 18 19 20 23 87 7 97 -20 12 -10 25 19 25 16 0 37 7 45 16 19 18 22 99 5
110 -8 5 -6 10 5 16 27 15 38 56 26 94 -10 28 -8 36 9 53 25 25 28 87 7 117
-14 18 -35 19 -780 22 l-767 2 -24 -24z"/>
<path d="M13900 14604 c-53 -23 -70 -43 -70 -83 0 -53 33 -101 69 -101 51 0
64 75 23 138 -9 13 -10 22 -4 22 6 0 16 9 22 20 13 24 7 24 -40 4z"/>
<path d="M13434 14526 c-61 -28 -68 -37 -66 -89 3 -72 56 -124 93 -91 24 22
26 90 3 122 -14 20 -14 25 -2 40 16 19 31 42 26 41 -2 0 -26 -11 -54 -23z"/>
<path d="M7119 14287 c-93 -27 -171 -88 -207 -164 -13 -27 -20 -32 -36 -26
-12 5 -60 8 -107 8 -75 0 -92 -4 -144 -30 -71 -37 -125 -101 -125 -149 l0 -33
-63 -5 c-174 -14 -251 -138 -176 -284 10 -21 18 -38 16 -39 -1 -1 -20 -7 -42
-13 -98 -28 -141 -131 -95 -227 13 -26 36 -55 53 -65 l30 -19 -36 -14 c-50
-21 -77 -52 -77 -87 0 -66 59 -132 136 -151 38 -10 42 -14 34 -29 -28 -52 -1
-154 51 -191 19 -13 31 -32 35 -57 17 -95 104 -200 208 -252 32 -17 66 -30 74
-30 30 0 -1 -336 -44 -490 -24 -83 -78 -191 -121 -239 l-38 -43 -442 -137
c-470 -146 -484 -153 -545 -235 -167 -226 -192 -701 -72 -1356 37 -201 41
-213 67 -206 79 23 70 33 110 -126 36 -144 36 -144 52 -532 21 -506 22 -656 7
-1036 -12 -302 -14 -321 -47 -460 -94 -393 -118 -748 -70 -998 68 -351 251
-564 558 -648 l92 -25 1355 1 1355 1 -26 -28 c-101 -109 -220 -374 -365 -808
l-73 -220 -1580 1 -1581 0 0 -48 0 -48 1565 0 c1245 0 1565 -3 1565 -12 0 -7
-5 -30 -11 -50 l-10 -38 -577 0 c-999 0 -2488 -14 -2212 -21 135 -3 659 -7
1166 -8 506 0 1076 -4 1266 -8 l345 -6 -20 -69 -20 -68 -1211 -1 c-666 -1
-1344 -5 -1506 -8 -236 -5 -116 -8 600 -13 492 -5 1168 -8 1502 -8 481 0 607
-3 603 -12 -2 -7 -11 -39 -20 -70 l-16 -58 -603 0 c-331 0 -996 -3 -1477 -8
-707 -6 -818 -8 -579 -13 162 -3 825 -7 1473 -8 647 0 1177 -4 1177 -7 0 -3
-5 -25 -11 -50 l-11 -44 -1494 0 c-989 0 -1494 3 -1494 10 0 7 -169 10 -486
10 -551 0 -500 -10 -441 89 68 114 172 194 292 226 166 43 436 -5 585 -105 25
-16 48 -30 53 -30 4 0 7 47 7 104 l0 104 -56 26 c-84 40 -209 73 -325 87 -354
41 -606 -93 -753 -401 -20 -41 -36 -80 -36 -87 0 -9 -86 -13 -372 -15 -416 -3
-402 -1 -481 -76 -39 -38 -177 -301 -177 -338 0 -34 38 -197 64 -279 l26 -80
0 -521 c0 -578 0 -575 66 -652 19 -23 60 -53 92 -69 l57 -28 905 -6 c602 -4
954 -10 1050 -18 107 -10 300 -12 740 -8 742 7 997 24 1206 77 67 17 110 20
318 20 l241 -1 120 -68 c99 -56 124 -67 143 -60 62 24 101 6 160 -72 34 -45
71 -69 422 -269 430 -246 399 -236 421 -132 21 105 -10 195 -103 297 -67 73
-227 289 -221 297 2 5 1140 8 2529 8 l2524 0 0 925 0 925 270 0 270 0 0 -925
0 -925 3800 0 3800 0 0 663 c0 422 4 675 10 697 7 25 7 55 -1 102 -14 81 -3
118 45 146 28 16 35 29 45 79 l13 60 182 7 c99 4 196 9 214 12 l32 6 0 -886 0
-886 605 0 605 0 0 925 0 925 -382 0 c-210 0 -379 3 -375 6 3 4 39 17 79 31
247 82 418 215 609 472 125 168 261 460 309 664 40 169 44 362 9 454 -6 17 -6
29 0 32 5 4 -35 100 -90 214 -55 115 -119 252 -142 305 l-42 97 2 515 3 515
-39 -140 c-96 -346 -169 -520 -258 -616 -159 -171 -556 -391 -1074 -592 -90
-36 -194 -74 -230 -86 -55 -18 -68 -27 -80 -54 -12 -28 -25 -36 -109 -65 l-95
-34 -365 -9 c-201 -6 -826 -23 -1390 -40 -688 -19 -1036 -26 -1059 -19 -62 18
-80 38 -135 153 l-53 113 -108 79 -108 79 50 43 51 44 -105 222 c-229 484
-283 598 -353 742 -97 202 -93 192 -70 215 18 18 34 20 133 20 61 0 257 5 435
12 l322 12 0 278 0 278 -365 0 c-201 0 -365 2 -365 5 0 3 27 57 60 120 51 97
60 123 60 167 0 89 -44 156 -112 173 -25 6 -35 -1 -95 -66 -139 -152 -295
-302 -393 -376 -23 -18 -110 -32 -110 -18 0 3 12 24 27 48 34 54 43 129 18
157 -40 45 -77 13 -97 -82 -7 -32 -15 -58 -18 -58 -3 0 -11 19 -18 43 -26 83
-72 103 -98 42 -16 -39 -8 -91 21 -132 l16 -23 -203 0 -203 0 140 -77 c77 -42
141 -77 143 -78 1 -1 -11 -27 -28 -58 -34 -63 -39 -120 -13 -170 9 -18 17 -51
17 -74 1 -58 -29 -87 -118 -115 -82 -25 -94 -32 -98 -59 -3 -18 -16 -15 -173
38 -93 32 -172 59 -174 60 -2 1 58 138 134 304 75 165 133 305 129 309 -5 5
-99 57 -208 116 l-199 108 124 26 c422 91 662 211 789 394 69 101 91 217 70
379 -23 188 -51 258 -148 359 -132 139 -394 270 -706 353 -66 18 -68 19 -40
28 16 5 118 10 226 11 l198 1 0 26 c0 25 -4 27 -61 33 -183 19 -465 0 -607
-40 -151 -42 -301 -149 -332 -235 l-13 -37 -151 -7 c-481 -21 -798 -103 -984
-256 -59 -47 -63 -54 -58 -83 3 -17 8 -55 12 -84 l5 -53 -33 14 c-48 21 -520
235 -683 310 -92 42 -139 69 -137 78 1 8 30 83 64 168 l62 153 -22 19 c-12 9
-19 20 -15 22 19 12 206 29 328 30 123 2 135 4 143 22 5 11 28 41 51 67 41 46
41 47 19 52 -13 3 -86 7 -164 9 l-141 4 -104 63 c-151 92 -150 90 -42 90 l92
0 11 38 c24 87 91 439 109 577 34 262 44 461 39 776 l-6 296 107 -80 c152
-114 348 -244 476 -315 271 -152 462 -196 583 -136 107 53 285 278 442 559
170 303 486 1003 464 1025 -16 16 -378 220 -390 220 -11 0 -666 -969 -676
-1000 -6 -18 -75 22 -246 144 -169 119 -287 222 -419 363 -317 339 -417 434
-507 478 -38 18 -75 27 -142 31 l-91 7 -19 34 c-42 79 -179 169 -347 229 -75
26 -82 27 -155 16 -43 -7 -91 -12 -108 -12 -28 0 -32 -3 -38 -37 -28 -173 15
-259 178 -355 87 -52 139 -169 139 -317 0 -77 -2 -86 -24 -104 -13 -10 -41
-34 -61 -53 l-37 -34 -104 44 c-210 90 -277 125 -499 265 l-227 142 33 47 c71
101 97 240 76 410 l-12 102 -32 0 c-128 0 -349 -51 -466 -107 -100 -48 -188
-135 -218 -216 -29 -77 -32 -213 -4 -219 9 -2 -8 -10 -38 -17 -154 -38 -263
-152 -324 -340 -31 -95 -36 -120 -46 -229 -28 -307 125 -1806 221 -2165 20
-72 24 -79 63 -101 22 -14 77 -39 121 -57 44 -18 84 -35 88 -39 4 -4 -23 -94
-61 -201 -114 -320 -124 -358 -147 -579 -66 -618 76 -1033 411 -1195 160 -78
340 -100 768 -92 421 7 626 36 791 111 l50 23 125 -44 c69 -24 132 -46 140
-49 9 -4 -15 -18 -60 -35 l-75 -29 -1970 0 -1970 0 -28 -35 c-16 -20 -43 -39
-65 -45 -24 -7 -139 -10 -332 -8 -282 3 -299 5 -390 30 -126 34 -258 48 -535
55 -334 8 -689 -14 -1144 -72 -206 -27 -409 -32 -476 -14 -46 13 -105 68 -105
98 l0 21 596 0 c594 0 596 0 573 20 -30 24 -29 24 56 0 83 -24 123 -25 150 -4
20 15 20 16 -7 39 -37 32 -35 39 3 20 17 -9 32 -15 33 -13 1 2 8 18 16 36 12
30 11 34 -6 47 -10 7 -86 65 -169 129 -89 68 -163 118 -182 122 -27 5 -73 -5
-150 -34 -10 -3 -13 49 -13 239 l0 242 30 -45 c69 -104 252 -218 529 -328 57
-22 105 -40 106 -38 2 2 51 113 109 248 l107 245 -32 25 c-95 72 -161 136
-184 174 -19 33 -31 81 -51 207 -34 221 -114 861 -109 870 3 4 23 10 45 14 45
8 44 -7 8 140 -127 517 -305 940 -459 1094 -76 75 -82 76 -542 142 -232 33
-424 62 -425 64 -2 2 -15 34 -29 71 -30 85 -38 173 -21 238 l13 50 72 12 c229
38 430 234 480 468 16 78 19 320 5 418 -7 49 -6 60 8 73 23 21 42 88 34 122
-4 15 -18 40 -32 56 l-26 27 37 34 c60 54 71 105 37 168 l-19 36 38 39 c51 51
61 105 32 166 -22 46 -74 87 -109 87 -26 0 -26 -2 -6 46 37 87 0 200 -78 240
-44 23 -144 16 -185 -14 l-31 -22 -17 53 c-9 28 -25 66 -36 83 -28 47 -104
113 -154 135 -57 25 -157 33 -216 16z m282 -1665 c43 -20 78 -40 78 -43 1 -4
-7 -16 -16 -28 l-18 -20 -73 34 c-83 39 -148 87 -157 115 -3 11 -1 29 5 40 11
20 13 19 57 -20 26 -22 81 -57 124 -78z m-1 -2158 c61 -52 115 -196 140 -379
16 -120 14 -404 -5 -529 -34 -230 -106 -376 -185 -376 -128 0 -220 318 -207
715 8 250 45 425 112 524 49 74 94 88 145 45z m10346 -2279 c19 -29 8 -73 -35
-142 -31 -51 -66 -60 -57 -15 3 15 8 45 12 67 10 59 34 115 50 115 7 0 21 -11
30 -25z m-162 -27 c13 -20 46 -128 46 -151 0 -4 -12 -7 -27 -5 -50 6 -90 107
-63 159 14 25 26 24 44 -3z m-2699 -241 c127 -40 283 -89 347 -107 65 -19 115
-37 110 -40 -4 -4 -52 -19 -107 -33 -55 -15 -139 -38 -188 -51 l-87 -24 -46
59 c-54 70 -62 75 -136 83 -120 13 -145 42 -139 159 0 15 4 27 9 27 4 0 111
-33 237 -73z m-1705 -582 l0 -525 -1349 0 -1350 0 -11 58 c-6 31 -14 65 -16
75 -5 16 32 17 678 18 376 1 924 5 1218 8 773 9 437 19 -872 27 l-1036 6 -7
27 c-3 14 -8 34 -11 44 -5 16 49 17 1028 18 568 1 1132 4 1253 8 194 5 155 7
-330 13 -302 5 -868 8 -1257 8 l-706 0 -15 45 -16 45 632 0 c909 0 1998 13
1747 21 -107 4 -689 7 -1292 8 l-1097 1 -14 28 c-8 15 -17 37 -21 48 l-7 21
1118 3 c615 1 1204 5 1308 9 245 8 -850 21 -1794 21 l-656 0 -27 45 -28 45
804 0 c441 0 1041 3 1332 8 480 6 508 8 304 13 -124 4 -729 7 -1345 8 l-1120
2 -36 47 -36 47 1256 3 c691 2 1303 6 1361 10 130 9 -1061 22 -1989 22 l-664
0 -48 45 -48 45 997 0 c548 0 1204 3 1457 8 l460 7 -285 6 c-157 3 -822 7
-1479 8 l-1194 1 -32 24 c-17 13 -60 40 -96 60 l-64 36 1698 0 1697 0 0 -525z
m770 -1045 l0 -290 -1639 0 -1639 0 -11 44 c-6 25 -11 47 -11 50 0 3 530 7
1178 7 647 1 1317 4 1487 8 280 5 240 7 -429 14 -407 4 -1078 7 -1492 7 l-753
0 -10 38 c-6 21 -14 52 -17 70 l-6 32 574 0 c987 0 2500 14 2248 21 -124 4
-580 7 -1015 8 -434 0 -1022 4 -1306 8 l-516 6 -11 57 c-7 31 -12 62 -12 68 0
9 293 12 1258 13 691 1 1392 5 1557 8 248 5 153 7 -550 13 -467 5 -1172 8
-1566 8 l-716 0 -10 50 -10 50 1708 0 1709 0 0 -290z m3008 -390 l1022 0 -7
-42 c-5 -24 -8 -91 -8 -151 l0 -107 -1460 -1 c-803 -1 -1604 -4 -1780 -8 -308
-6 -294 -6 350 -13 369 -5 1172 -8 1785 -8 l1115 0 16 -57 c9 -32 19 -66 24
-75 7 -17 -64 -18 -1396 -19 -772 -1 -1609 -5 -1859 -8 l-455 -6 625 -7 c344
-5 1183 -8 1865 -8 l1240 0 35 -63 c19 -34 37 -65 38 -69 2 -5 -329 -8 -736
-8 -1083 0 -2885 -13 -2827 -21 28 -3 850 -10 1827 -14 l1777 -8 61 -69 61
-68 -1578 -1 c-868 -1 -1749 -5 -1958 -8 l-380 -6 649 -7 c357 -5 1246 -8
1975 -8 l1326 0 80 -68 c44 -37 100 -82 124 -100 l45 -32 -201 0 c-200 0 -202
0 -231 25 -52 44 -111 65 -183 65 -76 0 -144 -23 -135 -46 3 -7 9 -21 12 -29
5 -13 -377 -15 -3407 -15 l-3414 0 -79 273 c-77 265 -216 773 -216 791 0 4
1152 6 2618 2 1439 -3 3077 -6 3640 -6z m-7103 -465 c48 -115 124 -297 170
-402 l83 -193 -303 0 -304 0 48 143 c26 78 83 262 127 409 43 147 81 264 85
260 3 -4 46 -101 94 -217z m318 -737 l23 -53 -140 -3 c-78 -2 -250 0 -383 3
l-241 7 12 32 c7 17 16 39 19 49 6 16 32 17 346 17 l340 0 24 -52z m1027 -230
c0 -155 -2 -279 -4 -277 -2 2 -41 123 -86 269 -44 146 -83 271 -85 278 -3 9
18 12 85 12 l90 0 0 -282z m-965 90 c15 -35 29 -69 32 -75 4 -10 -89 -13 -446
-13 -248 0 -451 2 -451 4 0 3 12 37 26 75 l26 71 393 0 392 0 28 -62z m77
-171 c15 -34 31 -71 34 -81 7 -19 -5 -19 -512 -12 -285 4 -520 9 -522 11 -2 1
7 32 20 69 l23 66 205 3 c113 1 322 3 465 4 l260 2 27 -62z m8874 -197 c46
-124 83 -230 83 -235 1 -6 -42 -18 -94 -28 l-95 -17 -32 36 c-18 20 -56 50
-86 67 -62 34 -92 76 -92 127 0 29 6 39 36 59 65 45 86 78 82 134 l-3 49 45
19 c25 10 51 17 59 16 9 -1 46 -87 97 -227z m2264 131 c0 -16 9 -58 20 -93 26
-82 25 -117 -3 -159 l-23 -34 -83 0 c-81 0 -83 -1 -112 -33 -16 -18 -29 -39
-29 -47 0 -14 -92 20 -249 91 -30 14 -115 50 -190 81 -75 30 -140 58 -146 61
-6 4 683 141 808 161 4 0 7 -12 7 -28z m-11063 -101 l21 -50 -575 0 c-456 0
-574 3 -569 13 2 6 10 29 17 50 l12 37 537 0 536 0 21 -50z m10182 -105 c102
-20 200 -40 216 -44 18 -6 -142 -9 -399 -10 -236 -1 -427 2 -424 5 5 4 374 79
412 83 5 1 93 -15 195 -34z m-12433 -262 c-3 -10 -12 -48 -21 -84 l-17 -66
-615 -6 c-339 -4 -722 -8 -852 -9 -235 -2 -234 -2 104 -9 187 -3 569 -7 849
-8 l508 -1 -6 -22 c-3 -13 -11 -47 -17 -75 l-12 -53 -706 -1 c-388 -1 -746 -4
-796 -8 -49 -4 264 -9 697 -11 432 -3 789 -7 791 -10 3 -3 -2 -35 -10 -71
l-16 -66 -615 -6 c-338 -4 -717 -8 -841 -9 -172 -1 -127 -3 189 -9 228 -3 606
-7 839 -8 358 -1 422 -3 418 -15 -3 -8 -11 -41 -18 -75 l-12 -61 -706 -1
c-388 0 -715 -4 -726 -9 -11 -5 291 -9 704 -9 l723 -1 -6 -22 c-3 -13 -9 -42
-12 -65 -6 -41 -6 -42 27 -51 24 -7 -85 -11 -361 -13 -217 -1 -602 -5 -855 -8
l-460 -6 634 -7 c349 -5 747 -8 884 -8 l249 0 -7 -36 c-4 -22 -21 -50 -43 -72
l-36 -37 -746 -5 c-413 -3 -714 -8 -675 -12 39 -5 375 -8 748 -8 372 0 677 -2
677 -3 0 -2 -13 -35 -28 -73 l-29 -69 -629 -7 c-903 -10 -987 -13 -549 -17
215 -2 564 -7 777 -10 l386 -6 -43 -105 -43 -105 -771 -3 -770 -2 0 735 0 735
925 0 c877 0 925 -1 920 -17z m2429 -13 l16 -30 49 25 48 25 41 -76 c23 -42
41 -77 41 -80 0 -2 -373 -4 -830 -4 -456 0 -830 3 -830 7 0 5 12 43 26 85 l26
78 699 0 698 0 16 -30z m1715 -161 c0 -178 -1 -191 -17 -184 -25 11 -120 30
-243 50 -101 17 -379 81 -388 90 -3 3 1 13 9 22 11 15 10 15 -9 -1 -18 -15
-22 -16 -22 -4 0 8 -7 15 -15 15 -11 0 -12 -4 -4 -14 15 -17 6 -16 -39 5 l-37
17 180 5 c147 5 161 6 75 9 -58 1 -142 2 -187 1 -45 -1 -90 3 -100 9 -10 5
-52 46 -92 90 l-73 81 481 0 481 0 0 -191z m-1497 -15 c3 -3 1 -14 -4 -23 -8
-12 -5 -30 10 -69 l21 -54 -882 7 c-486 4 -884 9 -886 10 -2 2 7 33 20 69 l23
66 846 0 c465 0 848 -3 852 -6z m59 -239 l27 -75 -944 0 c-520 0 -945 4 -945
8 0 4 9 36 21 70 l21 62 706 3 c389 1 793 3 897 5 l190 2 27 -75z m62 -176
c14 -38 26 -72 26 -75 0 -4 -2002 6 -2008 11 -3 2 35 111 43 125 4 6 347 10
959 10 l954 0 26 -71z m1376 -424 l0 -425 -1787 0 -1786 0 24 28 24 27 -31
-27 c-23 -21 -40 -28 -72 -28 -23 0 -42 3 -42 8 -1 4 -5 39 -10 77 -5 39 -7
85 -4 103 l6 32 1002 0 c552 0 1295 3 1652 8 l649 7 -375 6 c-206 3 -952 7
-1656 8 l-1282 1 -6 34 c-4 19 -16 46 -27 60 -11 14 -17 30 -14 36 8 13 176
13 211 0 17 -7 30 -7 33 -1 4 5 573 12 1446 16 792 4 1463 11 1490 14 49 7
-1682 21 -2502 21 -336 0 -413 2 -413 13 0 17 30 110 39 119 4 4 495 8 1091 9
597 1 1297 5 1555 9 l470 6 -400 3 c-220 1 -408 6 -418 10 -13 5 12 13 75 25
84 16 95 20 110 47 9 16 33 36 52 45 32 16 40 16 98 2 70 -17 64 -18 588 91
102 22 191 39 198 40 9 1 12 -90 12 -424z m-1317 250 l26 -75 -1066 0 c-848 0
-1064 3 -1060 13 2 6 13 38 23 69 l18 58 700 3 c386 1 843 3 1018 5 l316 2 25
-75z"/>
<path d="M11681 3784 c0 -11 3 -14 6 -6 3 7 2 16 -1 19 -3 4 -6 -2 -5 -13z"/>
<path d="M11448 3753 c7 -3 16 -2 19 1 4 3 -2 6 -13 5 -11 0 -14 -3 -6 -6z"/>
<path d="M8610 2516 c0 -2 8 -10 18 -17 15 -13 16 -12 3 4 -13 16 -21 21 -21
13z"/>
<path d="M8788 2463 c7 -3 16 -2 19 1 4 3 -2 6 -13 5 -11 0 -14 -3 -6 -6z"/>
<path d="M8822 2430 c0 -14 2 -19 5 -12 2 6 2 18 0 25 -3 6 -5 1 -5 -13z"/>
<path d="M13430 14061 c0 -55 13 -83 55 -124 31 -31 142 -93 150 -85 2 2 23
33 49 70 43 64 45 68 26 78 -16 8 -22 6 -32 -10 -7 -11 -17 -20 -23 -20 -24 0
-136 61 -173 94 -22 20 -42 36 -46 36 -3 0 -6 -18 -6 -39z"/>
<path d="M10290 14081 c0 -7 13 -29 29 -49 119 -151 186 -399 162 -600 -6 -50
-16 -103 -21 -117 -6 -15 -10 -34 -9 -43 1 -34 28 60 40 139 23 159 -7 342
-80 493 -40 81 -121 200 -121 177z"/>
<path d="M12780 13956 c0 -9 131 -88 136 -83 4 3 4 18 0 32 -5 18 -13 25 -30
25 -13 0 -42 7 -65 15 -22 8 -41 13 -41 11z"/>
<path d="M24556 13739 c51 -4 122 -15 159 -24 203 -47 413 -177 536 -331 28
-36 54 -63 57 -60 2 3 -21 37 -53 76 -168 205 -473 353 -720 348 l-70 -1 91
-8z"/>
<path d="M24205 13724 l-30 -14 30 6 c17 4 55 10 85 14 l55 7 -55 1 c-30 1
-68 -5 -85 -14z"/>
<path d="M8985 13640 c-84 -34 -96 -156 -21 -206 49 -31 131 -17 168 30 22 27
23 104 2 134 -30 44 -99 63 -149 42z"/>
<path d="M9354 13634 c-93 -46 -78 -185 23 -213 73 -20 153 35 153 105 0 96
-89 151 -176 108z"/>
<path d="M9733 13635 c-63 -27 -83 -119 -37 -174 92 -110 265 1 199 128 -15
31 -69 61 -107 61 -12 -1 -37 -7 -55 -15z"/>
<path d="M10374 13083 c-15 -32 -30 -62 -33 -68 -2 -5 3 -4 11 3 18 14 62 111
55 119 -3 2 -18 -22 -33 -54z"/>
<path d="M24021 12772 c-80 -43 -93 -149 -27 -209 30 -28 43 -33 86 -33 30 0
61 7 76 16 80 53 67 193 -21 230 -46 19 -73 18 -114 -4z"/>
<path d="M24431 12773 c-50 -25 -73 -68 -68 -127 4 -42 10 -55 41 -83 29 -27
44 -33 81 -33 25 0 59 7 75 15 86 44 76 193 -15 231 -44 18 -72 17 -114 -3z"/>
<path d="M24841 12773 c-89 -44 -95 -176 -11 -227 33 -19 106 -21 138 -2 87
48 79 193 -13 232 -44 18 -72 17 -114 -3z"/>
<path d="M21732 11970 c-39 -38 -62 -108 -62 -184 0 -157 124 -251 362 -276
54 -5 117 -14 140 -20 61 -14 64 -13 34 11 -56 44 -68 107 -41 209 24 88 20
117 -19 156 -36 36 -65 42 -106 21 -23 -12 -26 -11 -40 17 -21 43 -126 96
-191 96 -39 0 -53 -5 -77 -30z"/>
<path d="M21593 11623 c-39 -4 -42 -6 -58 -51 -8 -26 -18 -73 -22 -105 -4 -35
-11 -61 -20 -64 -7 -3 -13 -14 -13 -25 0 -18 4 -19 43 -11 43 8 116 9 152 2
14 -3 21 2 23 18 4 24 -13 32 -91 42 l-49 6 38 50 c20 28 55 68 76 91 l39 41
-32 7 c-17 3 -34 5 -38 4 -3 -1 -25 -3 -48 -5z"/>
<path d="M22080 11300 c-13 -8 -13 -11 0 -23 8 -8 33 -19 56 -25 22 -7 57 -28
77 -49 35 -34 39 -36 54 -20 16 16 15 19 -22 57 -21 22 -58 46 -83 55 -53 17
-62 18 -82 5z"/>
<path d="M21542 11185 c-41 -51 -36 -126 8 -140 53 -17 106 74 78 133 -18 38
-59 41 -86 7z"/>
<path d="M22607 11170 c-52 -155 -77 -262 -77 -337 l0 -52 43 19 c57 27 164
27 215 1 20 -11 45 -33 55 -51 18 -31 19 -31 39 -13 11 10 29 30 40 46 l20 28
-77 94 c-112 140 -252 283 -258 265z"/>
<path d="M22022 11083 c-39 -15 -56 -118 -24 -146 25 -23 45 -21 71 7 60 63
24 168 -47 139z"/>
<path d="M22050 10656 c-21 -26 -88 -62 -155 -84 -108 -35 -114 -35 -127 -7
-10 23 -45 34 -60 20 -3 -3 12 -40 33 -83 21 -42 39 -83 39 -89 0 -18 17 -16
81 6 91 31 138 59 169 102 39 54 58 180 20 135z"/>
<path d="M22565 9699 c4 -13 14 -39 21 -58 8 -19 13 -35 12 -37 -2 -1 -113
-70 -246 -153 l-244 -151 -28 22 c-15 13 -76 66 -134 118 l-105 95 5 78 c3 42
2 77 -2 77 -5 0 -195 -46 -423 -102 l-414 -103 6 -645 c6 -609 20 -1375 35
-1947 l7 -255 -47 -44 c-92 -86 -290 -194 -510 -279 -54 -20 -98 -39 -98 -40
0 -6 120 -258 125 -263 2 -3 83 59 180 137 156 126 179 141 213 141 38 -1 139
-29 424 -120 l167 -53 178 113 c497 316 902 602 1040 733 68 64 75 75 98 149
42 132 91 371 149 721 l13 77 -41 11 c-52 13 -106 30 -106 33 0 18 113 415
156 546 136 420 258 670 394 808 56 57 90 78 146 90 32 6 -19 24 -455 160
-270 84 -498 155 -507 159 -13 5 -15 2 -9 -18z"/>
<path d="M10496 8314 c-26 -59 -45 -108 -44 -110 2 -1 45 30 96 69 l92 72 -43
37 c-23 20 -45 37 -48 38 -3 0 -27 -48 -53 -106z"/>
<path d="M27070 7184 c-29 -52 -50 -96 -49 -97 159 -99 252 -170 368 -282 373
-359 581 -848 581 -1365 0 -719 -407 -1376 -1052 -1701 -402 -202 -882 -253
-1322 -139 -109 28 -260 82 -338 121 l-36 19 -51 -95 c-28 -53 -51 -97 -51
-99 0 -6 187 -86 263 -112 39 -14 124 -38 187 -53 101 -25 155 -34 348 -57
l42 -5 0 -285 0 -284 -164 0 c-162 0 -165 0 -195 -26 -30 -25 -31 -28 -31
-115 l0 -89 505 0 505 0 0 75 c0 144 -18 155 -240 155 l-160 0 0 284 0 285 58
6 c322 35 536 96 797 228 534 268 933 765 1086 1351 53 206 63 291 63 536 0
246 -10 329 -65 540 -131 500 -438 931 -868 1219 -140 94 -122 96 -181 -15z"/>
<path d="M20581 5936 c-13 -7 -19 -16 -14 -19 6 -4 18 2 28 13 21 23 19 24
-14 6z"/>
<path d="M20730 5890 l-55 -18 45 -1 c30 0 53 6 70 19 31 24 14 24 -60 0z"/>
<path d="M20585 5880 c3 -5 11 -10 16 -10 6 0 7 5 4 10 -3 6 -11 10 -16 10 -6
0 -7 -4 -4 -10z"/>
</g>
</svg>
