<?xml version="1.0" standalone="no"?>
<!DOCTYPE svg PUBLIC "-//W3C//DTD SVG 20010904//EN"
 "http://www.w3.org/TR/2001/REC-SVG-20010904/DTD/svg10.dtd">
<svg version="1.0" xmlns="http://www.w3.org/2000/svg"
 width="2100.000000pt" height="2100.000000pt" viewBox="0 0 2100.000000 2100.000000"
 preserveAspectRatio="xMidYMid meet">

<g transform="translate(0.000000,2100.000000) scale(0.100000,-0.100000)"
fill="#000000" stroke="none">
<path d="M9107 16405 c-36 -25 -69 -45 -72 -45 -11 0 -230 -148 -306 -206
-113 -87 -236 -209 -273 -272 -5 -8 61 -99 186 -255 196 -248 299 -377 722
-914 l239 -302 23 67 c55 163 164 463 178 491 17 33 62 61 96 61 11 0 20 3 20
6 0 3 -68 135 -152 293 -360 682 -591 1116 -592 1118 -1 1 -32 -18 -69 -42z"/>
<path d="M11732 16423 c-6 -10 -170 -321 -366 -691 -196 -370 -359 -679 -363
-687 -3 -10 2 -15 16 -15 35 0 79 -28 97 -61 14 -28 123 -328 178 -491 l23
-68 577 730 c366 463 574 735 570 743 -16 26 -101 123 -147 166 -83 78 -390
300 -422 305 -7 1 -41 21 -77 44 -35 23 -67 42 -71 42 -3 0 -10 -8 -15 -17z"/>
<path d="M15815 15989 c-173 -11 -321 -49 -481 -124 -115 -53 -234 -130 -234
-150 0 -24 24 -18 81 21 128 86 309 159 479 194 137 28 368 28 515 0 287 -56
539 -196 738 -411 169 -181 276 -386 331 -631 88 -390 0 -791 -241 -1113 -60
-79 -66 -84 -93 -78 -58 11 -110 -49 -89 -104 33 -88 155 -61 151 34 -1 33 9
52 71 135 122 162 215 379 254 588 25 140 23 382 -6 517 -120 569 -545 991
-1106 1101 -124 25 -228 31 -370 21z"/>
<path d="M14888 15620 c-25 -26 -29 -36 -24 -64 6 -29 0 -41 -48 -101 -124
-155 -223 -371 -268 -580 -30 -144 -33 -412 -4 -545 63 -295 185 -520 390
-725 276 -275 603 -409 991 -409 179 1 295 20 452 75 151 53 354 167 361 202
5 26 -15 21 -82 -22 -142 -89 -305 -156 -476 -193 -135 -30 -384 -30 -523 0
-139 31 -237 66 -355 127 -144 75 -248 153 -361 271 -187 194 -299 407 -358
685 -25 119 -25 391 0 509 48 225 135 412 275 592 40 52 46 56 75 51 76 -12
121 89 61 136 -37 29 -70 26 -106 -9z"/>
<path d="M4619 15098 c-147 -10 -295 -52 -441 -124 -107 -52 -178 -100 -178
-119 0 -23 25 -18 74 15 114 77 286 146 439 175 105 20 296 20 412 0 459 -80
838 -425 955 -872 95 -361 13 -759 -214 -1045 -38 -47 -50 -57 -76 -56 -57 2
-91 -51 -66 -100 37 -72 140 -33 128 49 -2 9 26 54 60 100 362 481 322 1160
-94 1596 -265 277 -611 409 -999 381z"/>
<path d="M10026 14855 c-22 -8 -44 -22 -50 -32 -24 -39 -153 -417 -149 -434 3
-10 12 -21 21 -25 24 -10 1182 -12 1214 -1 14 5 29 15 32 23 7 19 -133 420
-156 444 -34 36 -83 40 -483 40 -308 -1 -398 -4 -429 -15z m301 -149 c26 -22
28 -30 28 -96 0 -66 -2 -74 -28 -96 -40 -34 -90 -32 -128 5 -26 26 -29 36 -29
91 0 55 3 65 29 91 38 37 88 39 128 5z m394 -5 c26 -26 29 -36 29 -91 0 -55
-3 -65 -29 -91 -38 -37 -88 -39 -128 -5 -26 22 -28 30 -28 96 0 66 2 74 28 96
40 34 90 32 128 -5z"/>
<path d="M3833 14790 c-29 -12 -46 -46 -39 -80 4 -20 -1 -33 -15 -46 -33 -30
-135 -187 -173 -267 -79 -164 -117 -333 -117 -522 -1 -289 73 -519 239 -745
231 -315 602 -502 992 -502 142 1 219 11 346 47 147 42 384 166 384 201 0 22
-28 16 -73 -15 -127 -87 -323 -159 -506 -187 -64 -9 -244 -7 -326 5 -464 67
-864 428 -980 887 -21 81 -27 124 -39 271 -5 60 12 216 34 310 37 158 124 335
224 459 34 43 46 51 73 51 69 -2 100 80 47 122 -29 23 -38 24 -71 11z"/>
<path d="M8054 14502 c12 -66 16 -73 34 -63 9 5 26 5 37 0 11 -4 119 -86 240
-181 l220 -174 22 -159 c12 -88 31 -221 41 -295 l18 -135 13 60 c10 44 12 99
7 205 -4 80 -8 152 -8 160 0 8 21 73 46 145 25 71 42 133 38 137 -4 3 -61 31
-127 61 -66 31 -225 105 -354 166 l-233 110 6 -37z"/>
<path d="M12428 14332 c-241 -114 -438 -210 -438 -214 0 -22 144 -148 206
-180 l69 -37 -3 -46 c-4 -46 7 -200 13 -193 2 2 16 98 31 213 l27 210 218 170
c245 191 255 198 280 184 13 -7 19 -5 23 9 8 28 19 92 15 91 -2 0 -201 -94
-441 -207z"/>
<path d="M8008 14335 c-92 -61 -103 -85 -118 -249 -20 -225 39 -607 119 -771
50 -102 65 -110 221 -133 74 -11 136 -19 137 -18 2 2 -9 32 -23 67 -29 70 -78
255 -118 444 -85 399 -147 691 -149 698 -1 4 -32 -13 -69 -38z"/>
<path d="M12840 14372 c0 -5 -25 -125 -55 -268 -31 -142 -69 -324 -86 -404
-43 -206 -93 -395 -123 -469 -14 -35 -25 -65 -23 -67 1 -1 63 7 137 18 156 23
171 31 221 133 115 236 163 799 80 953 -6 12 -37 39 -69 60 -77 52 -82 55 -82
44z"/>
<path d="M11060 14255 c-69 -20 -112 -45 -125 -73 -13 -29 -25 -28 -25 3 0 30
-15 33 -30 6 -15 -29 -12 -71 10 -118 27 -61 52 -64 150 -19 90 41 208 72 313
82 55 5 83 13 120 36 26 17 47 33 47 37 0 46 -340 79 -460 46z"/>
<path d="M9393 14160 c-55 -6 -85 -16 -130 -43 -64 -38 -126 -59 -171 -55 -28
2 -122 -45 -122 -61 0 -4 24 0 54 10 88 30 192 42 306 36 136 -8 241 -36 367
-97 86 -42 106 -48 128 -40 36 14 69 90 60 137 -7 38 -26 40 -35 2 l-6 -24
-15 30 c-8 16 -28 39 -46 51 -67 45 -248 70 -390 54z"/>
<path d="M11556 14145 c-19 -14 -18 -15 10 -15 16 0 40 -3 54 -6 l25 -6 -25
21 c-30 24 -39 25 -64 6z"/>
<path d="M9263 13696 c-165 -53 -293 -224 -318 -423 -8 -61 9 -74 20 -15 27
146 189 306 330 327 39 6 38 5 -12 -14 -123 -46 -202 -142 -218 -267 -16 -119
54 -233 178 -290 57 -27 71 -29 177 -29 99 0 122 3 167 24 62 28 125 92 143
146 13 39 9 163 -6 199 -4 12 -4 17 2 13 17 -10 63 -109 75 -162 21 -90 30
-95 25 -15 -11 185 -157 415 -312 490 -60 29 -186 37 -251 16z m72 -371 c14
-13 25 -34 25 -45 0 -24 -42 -70 -63 -70 -8 0 -26 9 -41 21 -50 39 -23 114 42
118 7 1 24 -10 37 -24z"/>
<path d="M11303 13686 c-118 -37 -236 -154 -318 -315 -35 -70 -53 -132 -61
-208 -8 -76 10 -88 20 -14 6 43 72 198 81 189 2 -2 -1 -26 -6 -53 -33 -168 74
-297 267 -324 81 -12 181 2 250 33 116 53 177 145 177 268 0 87 -42 177 -111
239 l-47 42 44 -24 c100 -54 201 -192 217 -295 7 -51 24 -59 24 -11 -1 61 -29
168 -62 229 -104 195 -303 297 -475 244z m71 -378 c33 -47 7 -108 -46 -108
-17 0 -40 7 -50 17 -22 20 -23 70 -1 95 23 26 78 24 97 -4z"/>
<path d="M10084 13060 c-25 -10 -67 -102 -68 -146 0 -64 118 -187 206 -213 38
-12 45 -10 104 19 70 34 170 119 142 120 -10 0 -51 -11 -92 -25 -41 -14 -88
-25 -104 -25 -48 0 -172 96 -172 133 0 7 14 41 30 75 17 35 30 66 30 68 0 7
-54 3 -76 -6z"/>
<path d="M9738 12549 c-40 -23 -40 -44 -2 -146 116 -312 297 -530 497 -600 75
-26 214 -24 287 5 157 62 309 241 400 471 25 64 72 223 67 227 -2 2 -35 -12
-73 -31 -196 -99 -492 -155 -749 -141 -137 7 -235 27 -275 56 -31 22 -70 94
-70 128 0 15 -9 26 -26 32 -31 12 -34 12 -56 -1z"/>
<path d="M10125 11686 c-18 -14 3 -15 225 -16 226 0 243 1 228 16 -15 15 -26
15 -113 4 -90 -12 -217 -10 -290 5 -20 4 -37 1 -50 -9z"/>
<path d="M10250 11609 c66 -11 318 -11 325 1 4 7 -59 10 -182 9 -128 -1 -174
-4 -143 -10z"/>
<path d="M9550 11490 c0 -15 7 -20 25 -20 14 0 25 2 25 4 0 2 -11 11 -25 20
-24 16 -25 16 -25 -4z"/>
<path d="M4885 10439 c-11 -17 2 -23 53 -24 26 -1 55 -5 65 -9 14 -7 16 -5 10
10 -3 11 -11 22 -17 26 -17 12 -104 9 -111 -3z"/>
<path d="M16084 10038 c-28 -29 -131 -143 -230 -252 -438 -488 -406 -447 -418
-526 -4 -24 -14 -53 -23 -63 -9 -9 -42 -98 -73 -196 l-57 -179 56 -12 c281
-62 686 -257 778 -375 57 -72 127 -107 223 -113 138 -8 232 29 442 171 107 74
127 84 157 79 31 -4 32 -3 22 16 -9 18 -4 24 57 63 66 43 82 56 82 72 0 21
-45 -5 -244 -138 -241 -161 -303 -196 -397 -220 -195 -51 -368 66 -369 248 0
35 7 74 17 94 18 39 1 27 441 308 155 99 284 186 287 193 12 33 -51 -1 -281
-147 -137 -88 -295 -189 -351 -225 -126 -80 -148 -113 -147 -223 0 -47 -4 -70
-11 -66 -5 4 -23 15 -39 27 -17 11 -84 48 -150 83 -101 52 -117 64 -98 69 51
14 170 78 234 125 89 67 181 167 266 292 39 56 116 155 172 220 93 108 104
118 132 115 36 -3 49 17 18 27 -19 6 -15 13 42 78 35 40 69 78 76 85 17 19 15
32 -5 32 -10 0 -48 -35 -85 -78 -37 -42 -75 -86 -85 -97 -10 -11 -45 -51 -78
-90 -33 -38 -62 -72 -65 -75 -3 -3 -41 -48 -85 -100 -176 -210 -289 -296 -434
-330 -179 -42 -374 96 -389 276 -6 74 11 115 81 192 34 38 157 173 272 302
116 129 238 265 273 303 34 38 62 73 62 78 0 22 -29 5 -76 -43z"/>
<path d="M4510 9947 c0 -8 35 -43 78 -78 42 -36 148 -124 235 -197 87 -73 160
-132 162 -132 2 0 0 11 -3 25 -5 15 -65 74 -162 156 -292 247 -310 260 -310
226z"/>
<path d="M5053 9506 c4 -10 7 -21 7 -25 0 -5 49 -49 109 -100 122 -103 144
-136 144 -221 0 -56 -35 -154 -69 -191 -14 -15 -11 -29 22 -137 l37 -121 56
28 c31 16 78 36 104 46 26 10 50 21 52 25 2 4 -18 78 -46 166 -44 142 -53 162
-84 187 -22 18 -39 43 -46 69 -16 61 -31 79 -152 181 -129 108 -143 118 -134
93z"/>
<path d="M4027 9493 c-14 -13 -5 -23 78 -94 78 -65 84 -73 68 -85 -27 -19 -3
-40 27 -24 18 10 25 8 43 -8 12 -11 72 -63 132 -117 61 -53 125 -116 144 -139
98 -119 269 -255 387 -308 27 -12 86 -31 131 -43 l83 -22 -73 -49 c-39 -27
-107 -77 -149 -112 l-78 -63 0 54 c0 60 -35 141 -73 168 -34 25 -751 349 -771
349 -49 0 17 -37 290 -162 500 -229 467 -212 492 -256 32 -57 38 -118 17 -187
-22 -79 -99 -156 -175 -179 -134 -40 -237 -13 -563 145 -136 66 -252 117 -257
114 -22 -14 -6 -28 70 -62 64 -29 79 -40 75 -54 -7 -23 10 -33 34 -20 15 8 50
-5 177 -64 88 -41 186 -81 219 -90 76 -19 197 -19 262 0 62 18 142 87 172 147
31 64 245 233 413 327 53 30 56 34 48 59 -5 15 -20 64 -35 109 l-26 81 -47
-24 c-105 -54 -220 -50 -351 12 -95 44 -173 100 -308 221 -154 137 -440 383
-445 383 -3 0 -8 -3 -11 -7z"/>
<path d="M5596 8132 c-3 -5 2 -46 10 -93 8 -46 15 -138 16 -204 1 -116 3 -126
56 -295 30 -96 63 -206 74 -245 42 -148 237 -754 251 -782 23 -42 86 -99 137
-122 45 -21 160 -30 160 -13 0 11 -298 950 -305 962 -3 5 -31 0 -62 -11 -85
-29 -83 -30 -83 64 -1 188 -52 345 -160 492 -31 43 -38 62 -49 137 -6 48 -14
95 -17 103 -7 16 -20 20 -28 7z"/>
<path d="M15317 8133 c-4 -3 -7 -49 -7 -101 0 -91 -1 -97 -45 -185 -25 -51
-52 -119 -60 -152 -22 -82 -29 -245 -17 -335 6 -41 9 -76 7 -78 -7 -8 -185 30
-278 59 -54 17 -100 30 -102 27 -2 -2 -77 -233 -165 -513 -89 -281 -171 -524
-182 -542 -29 -49 -104 -110 -155 -127 -36 -13 -91 -16 -246 -16 -182 0 -199
-1 -193 -17 14 -37 214 -397 301 -543 201 -336 378 -552 499 -609 72 -34 172
-64 276 -83 95 -16 418 -16 525 1 443 69 797 217 1082 453 313 259 607 874
698 1458 23 142 30 413 16 525 -14 109 -45 227 -82 318 -33 81 -118 212 -129
200 -4 -4 -52 -107 -105 -228 -147 -331 -164 -364 -221 -420 -148 -147 -442
-222 -721 -184 -97 13 -225 56 -300 100 -66 40 -163 125 -163 144 0 7 -17 42
-38 76 -108 180 -160 370 -169 617 -5 151 -9 173 -26 155z"/>
<path d="M3808 7663 c-71 -180 -93 -326 -85 -568 14 -390 119 -780 314 -1167
130 -259 258 -432 413 -561 329 -273 792 -441 1275 -463 227 -11 452 25 600
96 160 76 396 402 699 962 58 108 106 199 106 202 0 3 -134 6 -298 6 -360 0
-365 1 -459 97 l-63 63 -67 0 c-109 0 -214 61 -267 154 -14 22 -56 142 -96
266 -39 124 -117 364 -172 533 l-101 308 -22 -88 c-13 -48 -36 -119 -51 -158
-16 -38 -28 -75 -26 -80 4 -20 -90 -126 -151 -172 -75 -55 -220 -126 -302
-147 -285 -72 -599 -23 -749 117 -44 41 -133 175 -345 520 -57 92 -107 167
-111 167 -4 0 -23 -39 -42 -87z"/>
<path d="M7670 6149 c0 -16 115 -857 221 -1607 l20 -144 -33 -36 c-83 -92
-107 -170 -83 -265 8 -33 24 -75 35 -92 11 -18 20 -38 20 -44 0 -7 -36 -116
-81 -243 -44 -126 -78 -232 -76 -234 9 -10 279 -107 462 -167 553 -181 1088
-287 1750 -349 219 -20 1010 -17 1245 5 615 59 1154 169 1697 348 166 55 442
154 450 163 3 2 -125 378 -155 456 -7 20 -4 32 14 60 31 47 54 140 47 187 -9
59 -37 114 -82 165 l-42 47 121 866 c66 477 120 875 120 886 0 19 -44 19
-2825 19 l-2825 0 0 -21z"/>
</g>
</svg>
