<?xml version="1.0" encoding="utf-8"?>
<!-- Generator: Adobe Illustrator 27.5.0, SVG Export Plug-In . SVG Version: 6.00 Build 0)  -->
<svg version="1.1" id="_x31_" xmlns="http://www.w3.org/2000/svg" xmlns:xlink="http://www.w3.org/1999/xlink" x="0px" y="0px"
	 viewBox="0 0 1000 800" style="enable-background:new 0 0 1000 800;" xml:space="preserve">
<g>
	<g>
		<polygon style="fill:#732C84;" points="799.941,481.772 847.327,481.772 859.972,691.878 806.34,691.878 		"/>
		<polygon style="fill:#AB56BF;" points="794.178,481.772 842.318,481.772 854.815,691.878 800.33,691.878 		"/>
		<polygon style="fill:#732C84;" points="786.908,486.965 835.049,486.965 854.972,691.217 804.086,691.476 		"/>
		<path style="fill:#DDCBA6;" d="M798.135,484.553c11.59,4.557,23.771,5.004,36.425,2.166l14.166,202.389
			c-15.521-2.812-30.415-2.849-41.191,0.45L798.135,484.553z"/>
		<polygon style="fill:#732C84;" points="676.318,477.874 802.219,477.874 818.588,691.878 690.085,691.878 		"/>
		<polygon style="fill:#BF63D6;" points="670.603,477.874 796.504,477.874 812.873,691.878 684.371,691.878 		"/>
		<path style="fill:#EFE3CA;" d="M821.457,488.43c4.308-0.153,8.675-0.717,13.103-1.71l14.166,202.389
			c-6.328-1.146-12.532-1.804-18.415-1.99L821.457,488.43z"/>
		<g style="opacity:0.45;">
			<path style="fill:#FFFFFF;" d="M676.999,486.135h114.69l14.801,197.481H689.448L676.999,486.135z M789.803,488.169H679.166
				l12.19,193.414h112.942L789.803,488.169z"/>
		</g>
		<g style="opacity:0.45;">
			<path style="fill:#FFFFFF;" d="M683.896,493.384h102.473l13.224,182.984H695.018L683.896,493.384z M784.683,495.268h-98.852
				l10.892,179.215h100.911L784.683,495.268z"/>
		</g>
		<polygon style="opacity:0.6;fill:#C94343;" points="727.583,477.806 757.354,561.924 787.698,545.6 804.432,579.406 
			812.74,691.736 687.774,691.736 670.639,614.368 698.679,477.806 		"/>
	</g>
	<g>
		<polygon style="fill:#8B54B2;" points="568.524,422.521 697.985,422.521 706.308,546.669 621.281,662.735 		"/>
		<polygon style="fill:#634C84;" points="565.232,427.102 694.693,427.102 703.016,551.25 617.99,667.317 		"/>
		<polygon style="fill:#E2D5AF;" points="566.365,433.047 695.826,433.047 742.906,650.048 619.123,673.261 		"/>
		<path style="fill:#F7F0DA;" d="M684.131,443.278c-23.041-0.613-42.405-2.235-42.405-7.47c0-0.216,0.061-0.427,0.109-0.639h49.722
			L684.131,443.278z"/>
		<path style="fill:#3B2D51;" d="M694.664,431.867c-15.806,2.469-23.595,10.537-21.353,20.693
			C676.165,465.486,694.664,431.867,694.664,431.867z"/>
		<polygon style="fill:#634C84;" points="551.087,450.809 680.547,450.809 733.305,691.023 603.844,691.023 		"/>
		<polygon style="fill:#4C396B;" points="525.906,450.809 655.367,450.809 708.124,691.023 578.664,691.023 		"/>
		<path style="fill:#EADDBE;" d="M560.277,467.491l46.292,210.777h113.595l-46.292-210.777H560.277z M564.732,470.969h107.265
			l43.712,203.821H608.444L564.732,470.969z"/>
		<polygon style="opacity:0.6;fill:#C94343;" points="673.105,422.623 669.624,426.775 670.499,432.797 655.367,450.845 
			635.581,450.845 630.89,422.623 		"/>
		<path style="fill:#F24C5C;" d="M461.551,391.813l135.174,0c4.196,0,7.666,3.249,7.918,7.412l17.208,284.293
			c0.274,4.533-3.35,8.359-7.918,8.359l-145.257,0c-4.304,0-7.823-3.412-7.93-7.689l-7.124-284.293
			C453.51,395.465,457.093,391.813,461.551,391.813z"/>
		<path style="fill:#D63444;" d="M539.181,391.813l53.028,0c1.646,0,2.575,3.249,2.12,7.412l-31.077,284.293
			c-0.496,4.533-2.427,8.359-4.219,8.359l-56.984,0c-1.689,0-70.284-2.504-69.757-6.781l102.702-285.201
			C535.541,395.464,537.432,391.813,539.181,391.813z"/>
		<g>
			<path style="fill:#EADDBE;" d="M464.471,673.939l-6.546-261.16c-0.055-2.23,0.776-4.337,2.342-5.932
				c1.567-1.598,3.665-2.476,5.911-2.476h122.736l0.24,276.607v0.961H472.721C468.208,681.939,464.584,678.424,464.471,673.939z
				 M586.98,406.293H466.178c-1.718,0-3.326,0.674-4.527,1.896c-1.199,1.222-1.836,2.835-1.792,4.541l6.546,261.161
				c0.085,3.435,2.861,6.126,6.317,6.126H587.22L586.98,406.293z"/>
		</g>
		<polygon style="fill:#D63444;" points="594.107,391.813 637.243,391.813 642.388,691.878 594.369,691.878 		"/>
		<polygon style="fill:#B72036;" points="637.243,391.813 637.327,396.721 600.032,397.1 597.378,691.878 594.369,691.878 
			594.107,391.813 		"/>
		<path style="fill:#634C84;" d="M691.867,427.286c2.469,7.485-15.676,21.596-20.243,23.559l13.578,3.19l13.701-20.001
			l-1.029-11.575L691.867,427.286z"/>
		<path style="fill:#503D70;" d="M677.548,454.445c14.135-8.024,18.948-21.6,20.326-31.985l52.623,240.205
			c-2.192,12.075-7.524,22.031-17.861,28.614L677.548,454.445z"/>
		<polygon style="fill:#EADDBE;" points="610.4,511.707 630.598,511.707 633.008,671.621 610.523,671.621 		"/>
		<polygon style="fill:#EADDBE;" points="629.801,412.783 609.602,412.783 608.096,405.374 630.581,405.374 		"/>
		<polygon style="fill:#EADDBE;" points="629.801,428.98 609.602,428.98 608.096,421.571 630.581,421.571 		"/>
	</g>
	<g>
		<path style="fill:#E0C1A9;" d="M522.732,566.542H308.714c-18.737,0-15.181,78.734,3.556,78.734h214.019
			C515.519,634.678,510.523,579.034,522.732,566.542z"/>
		<path style="fill:#4F333A;" d="M310.82,641.295c19.564-23.228-4.505-68.415-4.505-68.415s-9.402,18.793-6.517,36.53
			C302.683,627.147,310.82,641.295,310.82,641.295z"/>
		<path style="fill:#FFF0D2;" d="M345.737,622.93c-1.35-11.886,150.236-24.123,169.951-29.639
			c-0.527,14.854,1.703,31.988,5.579,42.836C522.02,638.234,347.142,635.302,345.737,622.93z"/>
		<path style="fill:#FFB94A;" d="M314.789,562.659h-147.6c-9.147,0-2.557,86.5,6.589,86.5h147.601
			C309.551,649.159,302.961,562.659,314.789,562.659z"/>
		<path style="fill:#FF9136;" d="M523.435,562.659H297.757l-0.129,8.197h225.678c1.568,0,2.867-1.835,2.903-4.099l0-0.001
			C526.245,564.494,525.003,562.659,523.435,562.659z"/>
		<path style="fill:#FF9136;" d="M529.905,642.041H304.673l-0.327,7.119h225.233c1.568,0,2.912-1.594,3.002-3.56l0,0
			C532.671,643.634,531.473,642.041,529.905,642.041z"/>
		<path style="fill:#FFCB64;" d="M167.188,562.659h147.6c-3.308,0-5.175,6.77-5.889,16.518
			c-19.595,8.299-47.924,15.231-80.144,18.764c-23.881,2.619-46.474,2.996-65.555,1.498
			C162.144,580.174,163.073,562.659,167.188,562.659z"/>
		<path style="fill:#FF9136;" d="M321.378,649.159h-16.402c-7.606-18.805-11.331-67.695-6.589-86.5h16.402
			C302.961,562.659,309.551,649.159,321.378,649.159z"/>
		<path style="fill:#FFE7BD;" d="M292.542,639.232h-12.638c-5.861-14.489-8.73-52.157-5.077-66.646h12.638
			C278.353,572.586,283.43,639.232,292.542,639.232z"/>
		<path style="fill:#FFE7BD;" d="M192.128,639.232H179.49c-5.861-14.489-8.73-52.157-5.077-66.646h12.638
			C177.938,572.586,183.015,639.232,192.128,639.232z"/>
	</g>
	<g>
		<path style="fill:#D64C60;" d="M271.182,648.601H117.079c-9.55,0-0.392,43.277,9.158,43.277H280.34
			C267.991,691.878,258.833,648.601,271.182,648.601z"/>
		<path style="fill:#B5314B;" d="M280.34,691.878h-19.539c-8.849-8.032-14.517-35.245-9.014-43.277h19.395
			C258.833,648.601,267.991,691.878,280.34,691.878z"/>
		<path style="fill:#EADDBE;" d="M484.458,653.409l-212.72,0.521c-18.507,0.092-11.539,33.171,6.968,33.078l212.719-0.521
			C480.324,682.085,472.947,658.72,484.458,653.409z"/>
		<path style="fill:#4F333A;" d="M269.403,684.171c2.252-11.506-4.034-28.531-4.034-28.531s-8.008,6.148-4.239,17.574
			C263.318,679.848,269.403,684.171,269.403,684.171z"/>
		<path style="fill:#FFF0D2;" d="M298.808,669.355h180.416c0.902,4.416,2.952,8.891,5.692,12.296h-181.64
			C284.759,681.651,280.291,669.355,298.808,669.355z"/>
		<path style="fill:#B5314B;" d="M488.978,648.601H253.4l1.616,7.637h235.578c1.637,0,2.602-1.71,2.156-3.819l0,0
			C492.304,650.311,490.615,648.601,488.978,648.601z"/>
		<path style="fill:#B5314B;" d="M496.52,684.241H260.942l1.616,7.637h235.578c1.637,0,2.602-1.71,2.156-3.819l0,0
			C499.845,685.951,498.156,684.241,496.52,684.241z"/>
		<path style="fill:#ED5672;" d="M117.079,648.601h123.905c-3.065,10.679-33.255,21.337-71.492,24.652
			c-20.979,1.819-40.358,1.076-54.675-1.587C112.212,660.392,112.094,648.601,117.079,648.601z"/>
		<path style="fill:#FFF0D2;" d="M128.275,657.665h95.012c-2.403,5.459,0.992,19.69,6.001,25.149l-94.976,0
			C127.154,682.814,121.118,657.665,128.275,657.665z"/>
	</g>
	<g>
		<path style="fill:#FF9566;" d="M400.304,385.397c5.22-0.633,7.909-1.345,9.727-1.503c1.819-0.158,6.089,6.09,6.327,7.355
			c0.237,1.265-4.033,0.949-5.22,0.633c-1.186-0.316-3.005-2.689-3.005-2.689s-3.717,2.452-6.169,2.214
			C399.513,391.171,400.304,385.397,400.304,385.397z"/>
		<path style="fill:#FFB882;" d="M405.128,385.397c5.22-0.633,7.909-1.345,9.728-1.503c1.819-0.158,6.09,6.09,6.327,7.355
			c0.237,1.265-4.033,0.949-5.22,0.633c-1.186-0.316-3.005-2.689-3.005-2.689s-3.717,2.452-6.169,2.214
			C404.337,391.171,405.128,385.397,405.128,385.397z"/>
		<path style="fill:#FFB882;" d="M386.938,391.803c6.88,3.875,17.557,3.163,21.986-0.791c4.429-3.954-4.271-6.88-11.072-7.75
			C391.051,382.392,386.938,391.803,386.938,391.803z"/>
		<path style="fill:#FF9566;" d="M402.976,385.335c0.034-0.361,0.198-0.672,0.419-0.958c-1.795-0.503-3.734-0.884-5.544-1.116
			c-6.801-0.87-10.914,8.541-10.914,8.541c6.88,3.875,17.952,3.243,22.381-0.712C409.598,390.843,402.798,387.243,402.976,385.335z"
			/>
		<path style="fill:#FF9566;" d="M434.547,385.397c5.22-0.633,7.909-1.345,9.728-1.503c1.819-0.158,6.089,6.09,6.327,7.355
			c0.237,1.265-4.033,0.949-5.22,0.633c-1.186-0.316-3.005-2.689-3.005-2.689s-3.717,2.452-6.169,2.214
			C433.757,391.171,434.547,385.397,434.547,385.397z"/>
		<path style="fill:#FFB882;" d="M439.372,385.397c5.22-0.633,7.909-1.345,9.727-1.503c1.819-0.158,6.09,6.09,6.327,7.355
			c0.237,1.265-4.033,0.949-5.22,0.633c-1.186-0.316-3.005-2.689-3.005-2.689s-3.717,2.452-6.169,2.214
			C438.581,391.171,439.372,385.397,439.372,385.397z"/>
		<path style="fill:#933737;" d="M367.476,305.285c-20.172-1.353-14.598-18.938-14.598-18.938s-15.129-12.039-9.953-23.808
			c1.872-4.256,5.574-5.276,5.574-5.276s-5.309-13.121-0.929-17.315c4.38-4.194,10.75-2.57,10.75-2.57s-2.92-8.928,5.441-11.227
			c8.361-2.299,12.873,3.923,12.873,3.923s2.521-5.681,14.333-1.894c11.811,3.788,5.309,22.996,5.309,22.996s6.37,0.812,7.565,10.01
			c1.194,9.198-12.209,20.291-12.209,20.291L367.476,305.285z"/>
		<g>
			<path style="fill:#822C2C;" d="M403.839,261.186c-1.194-9.198-7.565-10.01-7.565-10.01s4.466-13.216-0.755-19.883
				c1.587,3.947,2.996,9.168,0.825,11.901c-3.772,4.747-10.303,4-10.303,4s4.099,8.451-3.874,11.86
				c-7.973,3.409-14.367-9.683-14.367-9.683s-0.648,13.506-12.862,11.349c-3.861-0.682-6.114-3.139-7.394-6.179
				c0.517,1.63,0.954,2.722,0.954,2.722s-3.702,1.019-5.574,5.276c-5.176,11.769,9.953,23.808,9.953,23.808
				s-5.574,17.585,14.598,18.938l24.154-23.808C391.629,281.477,405.033,270.385,403.839,261.186z"/>
			<path style="fill:#822C2C;" d="M346.077,242.923c-0.394,1.873-0.239,4.128,0.141,6.301
				C345.946,246.967,345.962,244.747,346.077,242.923z"/>
		</g>
		<path style="fill:#E5D3AA;" d="M348.278,382.901c17.946,8.35,45.196,8.8,45.196,8.8l7.937-10.416c0,0-35.948-16.386-42.345-17.065
			C352.668,363.542,348.278,382.901,348.278,382.901z"/>
		<path style="fill:#E5D3AA;" d="M363.334,321.17c-6.973-6.819-27.564-3.833-27.388,4.615c0.853,40.907,12.362,57,12.362,57
			l18.641-2.243C366.949,380.542,370.307,327.989,363.334,321.17z"/>
		<g>
			<path style="fill:#BCB23C;" d="M496.533,391.203l-114.601,0c-7.102,0-9.021,24.839-1.919,24.839l114.601,0
				C485.43,416.042,487.349,391.203,496.533,391.203z"/>
			<path style="fill:#D8CA50;" d="M375.69,403.16c13.377,1.47,30.803,1.548,49.753-0.118c24.197-2.127,45.461-6.616,58.714-11.839
				l-102.224,0C378.469,391.203,376.243,397.108,375.69,403.16z"/>
			<path style="fill:#EADDBE;" d="M578.68,394.125l-82.207,0c-14.548,0-16.015,18.995-1.468,18.995l82.207,0
				C569.421,410.563,568.529,397.139,578.68,394.125z"/>
			<path style="fill:#D8C59E;" d="M511.42,401.006l60.229,0c0.875-3.025,3.131-5.722,7.031-6.88l-82.207,0
				c-14.548,0-16.015,18.995-1.468,18.995h4.946C498.768,407.683,502.794,401.006,511.42,401.006z"/>
			<path style="fill:#9E932A;" d="M578.162,391.203l-90.921,0l-0.325,4.383l90.922,0c1.168,0,2.187-0.982,2.277-2.192l0,0
				C580.204,392.184,579.33,391.203,578.162,391.203z"/>
			<path style="fill:#9E932A;" d="M576.646,411.659l-90.922,0l-0.325,4.383l90.922,0c1.168,0,2.187-0.981,2.277-2.192l0,0
				C578.688,412.64,577.813,411.659,576.646,411.659z"/>
			<path style="fill:#9E932A;" d="M496.533,391.203h-10.655c-5.888,4.301-7.094,20.537-1.845,24.839h10.58
				C485.43,416.042,487.349,391.203,496.533,391.203z"/>
			<path style="fill:#BCB23C;" d="M430.751,390.933c-1.582,5.22,0.791,8.383,8.146,8.383s9.569-8.146,9.569-8.146L430.751,390.933z"
				/>
		</g>
		<g>
			<path style="fill:#EADDBE;" d="M567.018,418.412l-91.267,0c-16.151,0-20.793,63.205-4.643,63.205l91.266,0
				C554.13,473.109,555.27,428.44,567.018,418.412z"/>
			<path style="fill:#D8C59E;" d="M502.561,433.244h57.108c1.652-6.6,4.091-12.051,7.349-14.832l-91.266,0
				c-16.151,0-20.794,63.205-4.643,63.205h17.267C486.138,462.293,491.779,433.244,502.561,433.244z"/>
			<path style="fill:#FFB94A;" d="M481.368,415.295h-127.23c-25.275-1.015-28.062,68.424-2.788,69.439h127.23
				C456.912,483.864,459.699,414.425,481.368,415.295z"/>
			<path style="fill:#FFCE61;" d="M354.138,415.295c-13.994-0.562-21.079,20.472-20.34,39.534c16.74,3.39,42.708,2.132,70.918-4.386
				c27.749-6.411,51.321-16.446,64.987-26.661c2.271-4.167,5.169-7.094,8.654-8.085c0.107-0.134,0.208-0.268,0.311-0.402H354.138z"
				/>
			<path style="fill:#EFA02E;" d="M568.003,415.295H466.687l-0.914,6.581h101.316c1.352,0,2.652-1.473,2.904-3.29v0
				C570.245,416.768,569.354,415.295,568.003,415.295z"/>
			<path style="fill:#EFA02E;" d="M565.81,479.02l-100.933,0l-0.978,5.715h100.933c1.351,0,2.666-1.279,2.936-2.857l0,0
				C568.038,480.299,567.162,479.02,565.81,479.02z"/>
			<path style="fill:#EFA02E;" d="M481.368,415.295h-17.142c-12.321,12.624-13.736,56.809-1.936,69.439h16.291
				C456.912,483.864,459.699,414.425,481.368,415.295z"/>
			<path style="opacity:0.64;fill:#FFF7E6;" d="M440.195,421.575l-76.395,0c-20.702-0.831-22.985,56.046-2.283,56.877h77.082
				C426.402,467.779,427.612,432.198,440.195,421.575z M430.879,473.568h-63.847c-17.148-0.688-15.256-47.799,1.891-47.111l63.278,0
				C421.779,435.256,420.777,464.728,430.879,473.568z"/>
			<path style="fill:#D8C59E;" d="M551.356,453.292c0-0.328-15.615-0.593-34.876-0.593c-19.262,0-34.876,0.266-34.876,0.593
				c0,0.327,15.615,0.593,34.876,0.593C535.741,453.885,551.356,453.619,551.356,453.292z"/>
			<path style="fill:#D8C59E;" d="M551.119,441.666c0-0.328-15.615-0.593-34.877-0.593c-19.262,0-34.876,0.266-34.876,0.593
				c0,0.328,15.615,0.593,34.876,0.593C535.504,442.259,551.119,441.994,551.119,441.666z"/>
			<path style="fill:#D8C59E;" d="M530.952,469.188c0-0.328-13.278-0.593-29.657-0.593s-29.657,0.266-29.657,0.593
				s13.278,0.593,29.657,0.593S530.952,469.515,530.952,469.188z"/>
		</g>
		<g>
			<path style="fill:#965CBF;" d="M451.453,483.651l-150.92,0c-9.353,0-23.692,46.127-14.34,46.127l150.92,0
				C425.021,529.778,439.36,483.651,451.453,483.651z"/>
			<path style="fill:#A871D8;" d="M287.013,504.661c14.393,5.846,40.978,7.834,70.841,4.339
				c35.059-4.103,63.972-14.515,73.318-25.349l-130.639,0C296.135,483.651,290.635,493.853,287.013,504.661z"/>
			<path style="fill:#EADDBE;" d="M558.246,489.078l-108.261,0c-19.158,0-30.124,35.274-10.965,35.274l108.261,0
				C538.235,519.603,543.445,494.674,558.246,489.078z"/>
			<path style="fill:#D8C59E;" d="M477.507,499.596l69.351,0c2.629-4.671,6.477-8.661,11.388-10.518l-108.261,0
				c-19.158,0-30.123,35.274-10.965,35.274l22.301,0C449.905,519.899,460.448,499.596,477.507,499.596z"/>
			<path style="fill:#73419E;" d="M558.922,483.651l-119.786,0l-2.429,8.14l119.786,0c1.538,0,3.329-1.822,4-4.07l0,0
				C561.164,485.473,560.46,483.651,558.922,483.651z"/>
			<path style="fill:#73419E;" d="M547.588,521.638l-119.785,0l-2.429,8.14l119.785,0c1.539,0,3.33-1.822,4-4.07l0,0
				C549.83,523.461,549.126,521.638,547.588,521.638z"/>
			<path style="fill:#73419E;" d="M454.477,483.651h-17.219c-13.06,6.598-25.776,39.528-17.813,46.127h17.22
				C421.642,529.778,439.454,483.651,454.477,483.651z"/>
			<g>
				<path style="fill:#EADDBE;" d="M405.379,524.431H299.015c-0.873,0-2.069-0.295-2.815-1.7c-0.459-0.866-0.692-2.083-0.692-3.619
					c0-8.738,8.356-30.114,15.656-30.114h107.27l-1.632,1.379c-6.768,5.719-14.576,27.274-11.937,32.949L405.379,524.431z
					 M311.164,490.607c-5.136,0-13.797,19.431-13.797,28.506c0,1.283,0.18,2.304,0.523,2.948c0.356,0.671,0.77,0.762,1.125,0.762
					h103.754c-1.652-6.977,4.71-24.984,11.314-32.216H311.164z"/>
			</g>
			<path style="fill:#D8C59E;" d="M527.868,513.673c0,0.393-20.076,0.712-44.841,0.712c-24.765,0-44.841-0.319-44.841-0.712
				c0-0.393,20.076-0.712,44.841-0.712C507.791,512.961,527.868,513.28,527.868,513.673z"/>
			<ellipse style="fill:#D8C59E;" cx="487.416" cy="504.183" rx="48.281" ry="0.712"/>
		</g>
		<g>
			<path style="fill:#EA2856;" d="M412.175,527.35H189.305c-13.811,0-7.674,37.166,6.137,37.166h222.871
				C400.453,564.516,394.316,527.35,412.175,527.35z"/>
			<path style="fill:#FF4569;" d="M277.066,550.776c54.312-3.737,101.161-12.952,124.968-23.426h-212.73
				c-8.011,0-9.301,12.499-6.285,23.001C208.453,552.896,241.31,553.237,277.066,550.776z"/>
			<path style="fill:#EADDBE;" d="M573.094,531.722H413.221c-28.292,0-23.599,28.421,4.693,28.421h159.873
				C561.618,556.317,554.551,536.232,573.094,531.722z"/>
			<path style="fill:#D8C59E;" d="M444.855,544.376h117.273c-0.525-5.438,2.62-10.624,10.967-12.654H413.221
				c-28.292,0-23.599,28.421,4.693,28.421h8.451C424.001,552.559,429.674,544.376,444.855,544.376z"/>
			<path style="fill:#B7204B;" d="M571.347,527.35l-173.495,0l1.02,6.559l173.495,0c2.228,0,3.807-1.468,3.525-3.279l0,0
				C575.61,528.818,573.575,527.35,571.347,527.35z"/>
			<path style="fill:#B7204B;" d="M576.104,557.957l-173.495,0l1.019,6.559l173.495,0c2.228,0,3.807-1.468,3.525-3.279l0,0
				C580.367,559.425,578.332,557.957,576.104,557.957z"/>
			<path style="fill:#B7204B;" d="M412.175,527.35h-18.52c-11.072,5.763-6.838,31.403,6.137,37.166h18.52
				C400.453,564.516,394.316,527.35,412.175,527.35z"/>
			<path style="opacity:0.82;fill:#FEFFF4;" d="M320.527,530.591l-111.932,0c-11.403,0-6.336,30.684,5.066,30.684l111.932,0
				C316.51,557.445,312.708,534.421,320.527,530.591z"/>
			<path style="opacity:0.82;fill:#FEFFF4;" d="M362.144,530.591h-18.155c-11.402,0-6.336,30.684,5.066,30.684h18.155
				C359.337,555.688,356.115,536.177,362.144,530.591z"/>
			<path style="fill:#D8C59E;" d="M546.373,548.984c0,0.393-28.831,0.712-64.395,0.712s-64.395-0.319-64.395-0.712
				s28.831-0.712,64.395-0.712S546.373,548.591,546.373,548.984z"/>
			<path style="fill:#D8C59E;" d="M544.238,553.492c0,0.393-28.831,0.712-64.395,0.712s-64.395-0.319-64.395-0.712
				c0-0.393,28.831-0.712,64.395-0.712S544.238,553.099,544.238,553.492z"/>
		</g>
		<polygon style="fill:#683647;" points="295.78,412.773 355.779,423.358 388.362,481.688 389.907,481.688 371.838,406.05 
			329.397,388.822 318.892,379.997 		"/>
		<polygon style="fill:#4F2935;" points="354.8,424.31 387.983,481.01 358.705,415.687 312.282,407.699 310.206,393.32 
			295.105,415.404 		"/>
		<polygon style="fill:#6D3E4C;" points="281.073,389.662 267.206,453.534 215.749,514.469 216.589,515.729 289.057,462.778 
			313.508,412.603 326.438,404.773 331.918,382.098 		"/>
		<path style="fill:#4F2935;" d="M304.927,410.388l5.773,3.638l-28.154,47.451l-66.748,53.042l0.791,1.21l73.442-52.501
			l24.307-48.095l13.365-11.072C319.832,409.737,312.239,411.863,304.927,410.388z"/>
		<path style="fill:#4F2935;" d="M276.897,408.9c15.426,2.108,42.187-10.651,54.998-19.073l-1.068-0.949l1.091-6.779l-50.845,7.564
			L276.897,408.9z"/>
		<path style="fill:#F4E7C6;" d="M277.712,404.579c10.715,2.941,51.229-14.81,53.997-17.018c2.693-2.15-1.051-13.867,17.228-23.532
			c18.279-9.665,21.43-27.313,13.237-44.122c-8.194-16.808-50.635,7.143-63.452,32.356c0,0-10.925,8.404-22.061,36.978
			C272.194,400.704,275.278,403.911,277.712,404.579z"/>
		<path style="fill:#EDD9AE;" d="M341.799,347.128c-6.564,2.857-13.163,4.628-19.39,5.428c3.466,12.016-4.99,29.439-21.284,41.88
			c-6.504,4.966-13.396,8.45-19.995,10.458c14.037-0.336,48.049-15.314,50.577-17.331c2.693-2.149-1.051-13.867,17.228-23.532
			c14.627-7.734,19.545-20.582,16.736-34.02C360.124,336.62,351.868,342.745,341.799,347.128z"/>
		<path style="fill:#FFB882;" d="M352.612,315.295c5.191-6.115,11.36-18.845,13.138-25.431l12.391,15.617l-15.406,29.835
			L352.612,315.295z"/>
		<path style="fill:#E5D3AA;" d="M354.218,312.125l-5.121,2.642c0,0,10.915,16.866,17.909,19.17l0.649-8.061L354.218,312.125z"/>
		<path style="fill:#F2E9CE;" d="M221.651,527.276h-7.75l-3.48-12.812c0,0,6.01-4.271,7.276-0.316
			c1.265,3.954-1.107,9.648-1.107,9.648L221.651,527.276z"/>
		<path style="fill:#F2E9CE;" d="M401.411,483.66h-14.117c0,0-0.712-4.152,1.423-4.864
			C390.853,478.085,401.411,483.66,401.411,483.66z"/>
		<path style="fill:#F4E7C6;" d="M317.66,345.064c8.541,13.286,10.439,29.894,10.439,29.894l-11.863-22.46L317.66,345.064z"/>
		<path style="opacity:0.6;fill:#C94343;" d="M376.687,303.647l-10.936-13.783c-1.547,5.729-6.416,16.102-11.074,22.731l-0.459-0.47
			l-4.413,2.277c-1.009,0.086-2.055,0.238-3.133,0.45c3.571,2.216,10.553,3.159,13.694,8.068c4.358,6.811,2.958,18.664,7.266,22.675
			c-0.124-4.137-0.352-8.148-0.733-11.705c0.035,0.012,0.073,0.036,0.107,0.047l0.649-8.061l-0.029-0.03l9.981-19.329
			C377.313,305.538,377.007,304.58,376.687,303.647z"/>
		<path style="fill:#F4E7C6;" d="M332.339,341.548c28.484,29.501,49.795,33.406,49.795,33.406l15.338-14.497
			c0,0-32.566-40.97-43.492-41.18C343.054,319.067,326.456,335.455,332.339,341.548z"/>
		<path style="fill:#EDD9AE;" d="M331.463,340.207c0.197,0.493,0.476,0.951,0.859,1.361c27.872,29.819,48.984,33.95,48.984,33.95
			l6.725-6.175C378.8,367.39,358.177,360.977,331.463,340.207z"/>
		<path style="fill:#FFB882;" d="M421.182,391.803c6.88,3.875,17.557,3.163,21.986-0.791c4.429-3.954-4.271-6.88-11.072-7.75
			C425.294,382.392,421.182,391.803,421.182,391.803z"/>
		<path style="fill:#FF9566;" d="M437.22,385.335c0.034-0.361,0.198-0.672,0.419-0.958c-1.795-0.503-3.734-0.884-5.544-1.116
			c-6.801-0.87-10.914,8.541-10.914,8.541c6.88,3.875,17.952,3.243,22.381-0.712C443.841,390.843,437.042,387.243,437.22,385.335z"
			/>
		<path style="fill:#F4E7C6;" d="M375.41,371.803c16.808,13.237,46.223,21.641,46.223,21.641l15.01-9.786
			c0,0-36.861-24.04-43.585-26.561S375.41,371.803,375.41,371.803z"/>
		<path style="fill:#EDD9AE;" d="M378.604,367.282c-3.687,1.507-4.478,4.513-4.478,4.513c16.808,13.237,47.506,21.649,47.506,21.649
			l5.718-3.697C418.911,386.905,394.843,378.998,378.604,367.282z"/>
		<path style="fill:#FFB882;" d="M369.865,266.868c-5.839,8.522-6.105,40.446-5.441,42.61c0.664,2.164,14.315,13.579,22.278,14.391
			c0,0,8.909-16.555,9.44-39.687c0.295-12.848-3.318-24.078-9.555-25.161C380.349,257.94,372.858,262.499,369.865,266.868z"/>
		<path style="fill:#822C2C;" d="M366.261,256.711c11.256-3.973,11.691,16.073,5.727,37.346l-8.361-1.894
			C363.627,292.164,362.892,257.901,366.261,256.711z"/>
		<path style="fill:#FFB882;" d="M369.399,282.649c0.036-5.989-6.713-9.453-9.209-3.832c-2.496,5.62,3.195,15.591,5.617,15.576
			C368.228,294.377,369.377,286.207,369.399,282.649z"/>
		<path style="fill:#DB5B3E;" d="M367.336,283.593c0.022-3.632-4.071-5.732-5.584-2.324c-1.513,3.408,1.937,9.454,3.406,9.445
			C366.626,290.705,367.323,285.751,367.336,283.593z"/>
		<path style="fill:#FFB882;" d="M366.88,287.868c-0.003-2.497-2.972-3.965-4.048-1.63c-1.076,2.335,1.45,6.513,2.511,6.515
			C366.404,292.754,366.882,289.352,366.88,287.868z"/>
		<g>
			<path style="fill:#5B302C;" d="M395.468,281.566l-2.97-0.42c-0.167,2.207-0.113,5.05,1.32,5.305
				C395.251,286.706,395.449,283.212,395.468,281.566z"/>
			<path style="fill:#933737;" d="M392.294,273.017c-0.308,0.657-0.456,6.699-0.261,7.266c0.195,0.568,6.071,1.195,6.421,0.758
				c0.35-0.437,0.561-6.596,0.41-7.404C398.713,272.831,392.619,272.324,392.294,273.017z"/>
			<path style="fill:#EA7B59;" d="M391.862,276.244c1.694,8.017,4.868,22.424,4.925,24.881c0.06,2.59-7.556,3.319-8.788,2.041
				c-1.185-1.228,2.912-27.01,2.912-27.01L391.862,276.244z"/>
			<path style="fill:#FFB882;" d="M390.963,275.503c1.549,7.77,4.44,21.648,4.462,24.008c0.022,2.485-7.373,3.246-8.554,2.031
				c-1.137-1.17,3.164-26.118,3.164-26.118L390.963,275.503z"/>
			<path style="fill:#5B302C;" d="M385.146,280.485l-3.7-0.414c-0.234,2.204-0.199,5.045,1.586,5.297
				C384.818,285.621,385.104,282.13,385.146,280.485z"/>
			<path style="fill:#933737;" d="M379.163,271.437c-0.559,0.649-0.808,6.659-0.451,7.226c0.358,0.568,11.062,1.276,11.698,0.846
				c0.635-0.43,0.998-6.553,0.721-7.359C390.853,271.346,379.752,270.752,379.163,271.437z"/>
			<g>
				<path style="fill:#EA7B59;" d="M377.528,298.003l-0.931,0.958c0.862,4.652,5.02,7.875,12.697,10.512l0.216-0.394
					C382.094,306.51,378.255,302.376,377.528,298.003z"/>
			</g>
			<path style="fill:#EA7B59;" d="M384.648,309.435c-0.137,0.242-1.045,0.345-1.933-0.155c-0.904-0.509-1.481-1.469-1.358-1.731
				c0.124-0.264,0.865,0.527,1.78,1.051C384.034,309.113,384.787,309.19,384.648,309.435z"/>
		</g>
	</g>
	<path style="fill:#FFCE61;" d="M61.441,692.554h877.118c0,0-324.605,40.559-437.727,40.438
		C394.091,732.878,61.441,692.554,61.441,692.554z"/>
	<g>
		<g>
			<polygon style="fill:#BC9E7D;" points="565.699,291.995 545.671,291.995 564.938,339.107 589.587,339.107 			"/>
			<path style="fill:#DBC1A2;" d="M604.991,164.019h-88.326c-3.878,0-7.021,3.143-7.021,7.021v132.216
				c0,3.878,3.144,7.021,7.021,7.021h94.953c3.878,0,7.021-3.144,7.021-7.021V177.667
				C618.639,170.129,612.529,164.019,604.991,164.019z"/>
			<path style="fill:#2D2222;" d="M618.639,286.375V175.794c0-6.503-5.272-11.775-11.775-11.775h-85.445
				c-6.503,0-11.775,5.272-11.775,11.775v110.581H618.639z"/>
			<polygon style="fill:#DBC1A2;" points="561.31,291.995 541.282,291.995 560.549,339.107 585.198,339.107 			"/>
			<polygon style="fill:#BC9E7D;" points="577.512,322.486 561.31,291.995 541.282,291.995 554.641,324.662 			"/>
			<path style="fill:#EADDBE;" d="M598.772,164.019h-94.953c-3.878,0-7.021,3.143-7.021,7.021v132.216
				c0,3.878,3.143,7.021,7.021,7.021h94.953c3.878,0,7.021-3.144,7.021-7.021V171.04
				C605.794,167.162,602.65,164.019,598.772,164.019z"/>
			<polygon style="fill:#F4E8D0;" points="513.113,310.277 560.154,310.277 586.012,164.019 550.986,164.019 			"/>
			<path style="fill:#F2E6CC;" d="M605.088,168.708c0.133,0.848,0.208,1.74,0.208,2.665v126.921c0,5.34-2.371,9.669-5.296,9.669
				l-97.12,0c-2.925,0-5.296-4.329-5.296-9.669V171.373c0-0.925,0.076-1.818,0.208-2.665c-0.536,1.511-0.85,3.309-0.85,5.243
				v126.922c0,5.34,2.371,9.668,5.296,9.668h98.404c2.925,0,5.296-4.328,5.296-9.668V173.951
				C605.938,172.016,605.624,170.219,605.088,168.708z"/>
			<polygon style="fill:#EADDBE;" points="588.823,335.826 564.556,335.826 564.556,340.514 590.964,340.514 			"/>
			<rect x="537.688" y="335.826" style="fill:#F4E8D0;" width="27.217" height="4.688"/>
			<path style="fill:#3F3131;" d="M601.259,164.019h-99.126c-2.946,0-5.335,4.329-5.335,9.669l0,112.683h109.795V173.687
				C606.593,168.348,604.205,164.019,601.259,164.019z"/>
			<polygon style="fill:#493A3A;" points="564.381,286.37 586.012,164.019 550.986,164.019 519.304,286.37 			"/>
			<path style="fill:#5B4A4A;" d="M501.63,167.769h99.331c2.128,0,3.961,2.255,4.821,5.512c-0.118-5.15-2.435-9.262-5.285-9.262
				h-98.404c-2.85,0-5.167,4.113-5.284,9.262C497.669,170.025,499.502,167.769,501.63,167.769z"/>
			<rect x="501.131" y="172.457" style="fill:#56B1D1;" width="100.33" height="113.913"/>
			<rect x="502.406" y="174.307" style="fill:#8EDBED;" width="97.779" height="110.213"/>
			<polygon style="fill:#A5EDF9;" points="584.225,174.307 539.934,174.307 518.366,284.52 562.658,284.52 			"/>
			<path style="fill:#DBC1A2;" d="M560.17,298.851h-17.748c-0.284,0-0.514,0.23-0.514,0.514v1.258c0,0.284,0.23,0.514,0.514,0.514
				h17.748c0.284,0,0.514-0.23,0.514-0.514v-1.258C560.684,299.081,560.454,298.851,560.17,298.851z"/>
		</g>
	</g>
	<g>
		<path style="fill:#E0D0B1;" d="M465.122,342.065l76.715,0c13.576,0,17.478,47.402,3.902,47.402l-76.715,0
			C475.955,383.086,474.997,349.586,465.122,342.065z"/>
		<path style="fill:#FF9A3E;" d="M537.116,339.727l106.944,0c21.245-0.761,23.588,51.316,2.343,52.077l-106.944,0
			C557.672,391.152,555.329,339.075,537.116,339.727z"/>
		<path style="fill:#ED8129;" d="M540.403,391.685c7.776-1.095,11.507-11.964,11.591-23.506h109.201
			c-0.213,11.979-4.982,23.274-14.792,23.625l-106,0V391.685z"/>
		<path style="fill:#FFB94A;" d="M464.294,339.728l85.162,0l0.768,4.935l-85.162,0c-1.136,0-2.229-1.105-2.441-2.467v0
			C462.409,340.832,463.158,339.728,464.294,339.728z"/>
		<path style="fill:#FFB94A;" d="M466.138,387.519l84.839,0l0.823,4.286l-84.84,0c-1.136,0-2.241-0.959-2.468-2.143l0,0
			C464.265,388.478,465.001,387.519,466.138,387.519z"/>
		<path style="fill:#F4E9D4;" d="M470.813,351.575l66.209,0c13.576,0,15.128,31.822,1.552,31.822l-66.499,0
			C474.312,375.09,473.952,361.266,470.813,351.575z"/>
		<path style="fill:#FFB94A;" d="M537.116,339.727h12.714c9.991,9.824,11.152,42.223,1.638,52.077h-12.009
			C557.672,391.152,555.329,339.075,537.116,339.727z"/>
		<g style="opacity:0.39;">
			<path style="fill:#FFFFFF;" d="M560.11,388.341c4.266-4.111,6.77-12.097,6.696-21.359c-0.081-10.13-3.173-19.244-8.071-23.78
				l-1.78-1.648h80.522c6.003-0.196,11.098,3.261,14.4,9.717c4.343,8.493,4.749,20.73,0.966,29.097
				c-2.719,6.016-7.329,9.428-13,9.609l-81.434,0.002L560.11,388.341z M637.498,343.394h-76.267c4.352,5.22,7.033,13.984,7.11,23.57
				c0.069,8.729-2.07,16.436-5.795,21.174l77.277-0.002c6.511-0.208,9.941-4.815,11.671-8.646c3.539-7.826,3.15-19.29-0.924-27.257
				c-2.925-5.719-7.397-8.847-12.646-8.847C637.783,343.387,637.64,343.388,637.498,343.394z"/>
		</g>
	</g>
	<g>
		<polygon style="fill:#F4E8D0;" points="505.212,225.367 505.212,231.055 509.467,228.211 		"/>
		<path style="opacity:0.6;fill:#C94343;" d="M618.48,183.443c1.388-11.69-2.063-18.377-10.592-19.813l-66.664,7.601
			c-14.402,21.738-30.4,68.769-29.835,114.928h42.883c-5.848-60.316,19.099-91.75,19.099-91.75l-2.991-2.319l1.347-1.781
			l26.814,26.529L618.48,183.443z"/>
		<path style="fill:#FF9566;" d="M536.951,168.904c2.238-18.151,6.216-23.622,6.216-23.622l29.993,22.042
			c0,0-9.402,14.582-17.076,15.158C548.409,183.058,536.951,168.904,536.951,168.904z"/>
		<polygon style="fill:#EADCB9;" points="558.822,184.598 534.12,165.949 527.607,175.525 552.309,194.173 		"/>
		<path style="fill:#5A4A5E;" d="M558.086,192.657l-30.833-20.853c-13.261,17.153-26.854,66.258-20.555,114.354h42.883
			C536.983,228.981,558.086,192.657,558.086,192.657z"/>
		<path style="fill:#FFEBBD;" d="M560.175,67.008l-51.719,57.438c23.124,14.67,78.573,71.859,78.573,71.859l52.216-59.924
			C639.245,136.381,589.266,82.175,560.175,67.008z"/>
		<g>
			<path style="fill:#FFC248;" d="M585.482,190.389l-0.859-0.886c-0.491-0.507-49.33-50.786-69.497-63.58l-1.134-0.719
				l47.368-52.606l0.779,0.407c25.688,13.393,68.639,59.81,70.455,61.78l0.689,0.748L585.482,190.389z M517.467,124.738
				c19.656,13.08,61.206,55.408,67.925,62.3l44.84-51.46c-5.669-6.067-44.689-47.349-68.366-60.149L517.467,124.738z"/>
		</g>
		<path style="opacity:0.6;fill:#C94343;" d="M628.357,141.211c-0.025-0.419-0.09-0.835-0.251-1.244
			c0.138-0.239,0.249-0.496,0.344-0.76c0.03-0.083,0.052-0.17,0.078-0.255c0.057-0.187,0.107-0.377,0.145-0.573
			c0.02-0.102,0.037-0.203,0.052-0.306c0.028-0.194,0.045-0.39,0.057-0.589c0.006-0.101,0.015-0.2,0.017-0.303
			c0.004-0.254-0.006-0.511-0.026-0.77c-0.01-0.119-0.025-0.237-0.039-0.355c-0.026-0.211-0.054-0.421-0.095-0.631
			c-0.029-0.151-0.066-0.3-0.102-0.45c-0.034-0.139-0.068-0.278-0.108-0.416c-0.049-0.17-0.101-0.337-0.158-0.504
			c-0.036-0.103-0.074-0.204-0.113-0.306c-0.072-0.19-0.144-0.378-0.227-0.562c0,0,0,0,0-0.001
			c-0.325-0.725-0.733-1.391-1.201-1.968c-0.012-0.015-0.023-0.029-0.035-0.044c-0.154-0.187-0.313-0.362-0.479-0.527
			c-0.004-0.004-0.008-0.007-0.012-0.011c-1.209-1.192-2.731-1.769-4.34-1.063c-2.466-3.526-10.622,1.586-10.004,5.836
			c0-0.001-0.001-0.002-0.002-0.004c0,0.004,0.002,0.007,0.002,0.011c0.009,0.058,0.023,0.115,0.035,0.173
			c0.002,0.009,0.003,0.017,0.005,0.026c0,0,0-0.001,0.001-0.001c0.051,0.233,0.122,0.464,0.232,0.687
			c-0.814,0.923-1.044,2.096-0.914,3.334c-0.011-0.043-0.027-0.085-0.036-0.128c0.011,0.137,0.041,0.276,0.061,0.414
			c0.01,0.069,0.018,0.137,0.031,0.206c0.12,0.66,0.336,1.329,0.628,1.986c0.021,0.047,0.045,0.093,0.067,0.14
			c0.128,0.277,0.267,0.549,0.418,0.817c0.041,0.072,0.081,0.143,0.123,0.214c0.152,0.258,0.312,0.509,0.481,0.754
			c0.036,0.052,0.069,0.105,0.106,0.156c0.21,0.296,0.428,0.581,0.656,0.851c0.009,0.01,0.018,0.019,0.027,0.03
			c0.211,0.248,0.427,0.479,0.646,0.698c0.065,0.065,0.129,0.124,0.195,0.186c0.169,0.161,0.338,0.311,0.509,0.452
			c0.072,0.059,0.143,0.119,0.215,0.174c0.188,0.145,0.374,0.274,0.558,0.389c0.045,0.028,0.09,0.062,0.135,0.089
			c0.226,0.133,0.446,0.24,0.66,0.323c0.054,0.021,0.105,0.031,0.158,0.048c0.158,0.052,0.311,0.09,0.459,0.11
			c0.066,0.009,0.128,0.012,0.192,0.014c0.134,0.005,0.26-0.009,0.382-0.036c0.053-0.012,0.107-0.019,0.158-0.037
			c0.163-0.058,0.315-0.14,0.445-0.268c0.636,0.681,1.452,1.013,2.343,1.068c0.943,0.059,1.962-0.201,2.94-0.668
			c0.955,1.214,1.878,2.429,2.774,3.64l5.492-6.929C630.777,143.146,629.539,142.087,628.357,141.211z"/>
		<path style="fill:#FFC248;" d="M628.006,138.718l-4.724,5.47c13.178,13.427,21.632,27.6,21.632,27.6l0.995-8.454h8.454
			C654.363,163.334,638.449,144.188,628.006,138.718z"/>
		<path style="fill:#FFA836;" d="M633.804,142.618c-2.022-1.594-3.993-2.954-5.798-3.9l-4.724,5.47
			c2.661,2.711,5.126,5.452,7.371,8.101C631.324,148.695,632.406,145.419,633.804,142.618z"/>
		<g>
			<path style="fill:#F25159;" d="M612.166,135.579c-3.433,4.054,4.87,12.002,7.109,9.906c3.631,3.213,12.014-2.673,9.905-7.109
				c2.532-4.121-2.188-12.237-7.108-9.906C619.036,124.831,609.685,131.542,612.166,135.579z"/>
			<path style="fill:#F25159;" d="M611.883,134.939c0.01-0.012,0.015-0.027,0.025-0.039c-0.032-0.052-0.054-0.105-0.082-0.158
				C611.841,134.808,611.863,134.874,611.883,134.939z"/>
			<path style="fill:#F25159;" d="M621.405,128.152c0.082-0.038,0.163-0.051,0.245-0.084c-0.27-0.212-0.57-0.37-0.896-0.474
				C620.993,127.741,621.212,127.924,621.405,128.152z"/>
			<path style="fill:#E24453;" d="M624.96,128.23c3.065,1.52,5.068,6.467,3.281,9.355c2.03,4.222-6.007,9.809-9.496,6.748
				c-1.558,1.446-6.173-2.15-7.336-5.702c0.647,3.983,6.114,8.495,7.866,6.854c3.631,3.213,12.014-2.673,9.906-7.109
				C631.202,135.085,628.596,129.262,624.96,128.23z"/>
		</g>
		<path style="fill:#493B4C;" d="M558.086,192.657l-16.224-10.443c-3.874,7.595-23.14,49.383-12.718,103.945h20.437
			C536.983,228.981,558.086,192.657,558.086,192.657z"/>
		<path style="fill:#493B4C;" d="M527.689,172.099l-0.436-0.295c-13.261,17.153-27.626,66.258-21.327,114.354h3.435
			C504.022,238.314,515.152,190.363,527.689,172.099z"/>
		<g style="opacity:0.34;">
			<path style="fill:#EADCB9;" d="M529.981,173.649l-0.529-0.358c-12.902,18.359-25.595,66.085-19.468,112.867h1.157
				C505.692,240.271,517.38,193.963,529.981,173.649z"/>
			<path style="fill:#EADCB9;" d="M532.856,175.594l-0.627-0.424c-12.451,19.577-24.141,65.725-18.213,110.989h1.156
				C509.891,241.68,520.711,196.807,532.856,175.594z"/>
			<path style="fill:#EADCB9;" d="M535.793,177.58l-0.707-0.478c-11.996,20.556-22.78,65.219-17.039,109.056h1.157
				C514.083,243.021,524.105,199.518,535.793,177.58z"/>
			<path style="fill:#EADCB9;" d="M538.784,179.603l-0.773-0.523c-11.538,21.342-21.495,64.596-15.931,107.078h1.157
				C518.268,244.309,527.553,202.117,538.784,179.603z"/>
			<path style="fill:#EADCB9;" d="M541.822,181.658l-0.83-0.561c-11.08,21.968-20.275,63.875-14.881,105.062h1.156
				C522.447,245.551,531.047,204.62,541.822,181.658z"/>
			<path style="fill:#EADCB9;" d="M544.902,183.74l-0.878-0.594c-10.623,22.456-19.111,63.072-13.88,103.012h1.157
				C526.622,246.754,534.581,207.042,544.902,183.74z"/>
			<path style="fill:#EADCB9;" d="M548.019,185.849l-0.921-0.623c-10.166,22.827-17.996,62.2-12.923,100.932h1.156
				C530.793,247.924,538.15,209.39,548.019,185.849z"/>
			<path style="fill:#EADCB9;" d="M551.183,187.989l-0.971-0.657c-9.712,23.092-16.924,61.267-12.005,98.826h1.157
				C534.959,249.056,541.758,211.681,551.183,187.989z"/>
			<path style="fill:#EADCB9;" d="M554.38,190.151l-1.004-0.679c-9.265,23.264-15.907,60.258-11.136,96.687h1.157
				C539.122,250.163,545.396,213.917,554.38,190.151z"/>
		</g>
		<path style="fill:#493B4C;" d="M550.178,198.102c0-3.051-2.273-5.525-5.077-5.525c-2.804,0-5.077,2.474-5.077,5.525
			c0,3.052,2.273,5.525,5.077,5.525C547.905,203.628,550.178,201.154,550.178,198.102z"/>
		<path style="fill:#493B4C;" d="M546.196,211.741c0-3.051-2.273-5.525-5.077-5.525c-2.804,0-5.077,2.474-5.077,5.525
			c0,3.052,2.273,5.525,5.077,5.525C543.923,217.267,546.196,214.793,546.196,211.741z"/>
		<path style="fill:#EADDBE;" d="M546.937,196.808c0-1.582-1.179-2.864-2.632-2.864s-2.632,1.282-2.632,2.864
			c0,1.582,1.178,2.864,2.632,2.864S546.937,198.39,546.937,196.808z"/>
		<path style="fill:#EADDBE;" d="M542.606,211.144c0-1.582-1.178-2.864-2.632-2.864c-1.454,0-2.632,1.283-2.632,2.864
			c0,1.582,1.179,2.865,2.632,2.865C541.428,214.008,542.606,212.726,542.606,211.144z"/>
		<path style="fill:#CC2E3D;" d="M615.237,136.603c0,3.175,2.574,5.749,5.749,5.749c3.175,0,5.749-2.574,5.749-5.749
			c0-3.175-2.574-5.749-5.749-5.749C617.811,130.853,615.237,133.427,615.237,136.603z"/>
		<ellipse style="fill:#F25159;" cx="620.781" cy="136.379" rx="4.909" ry="4.667"/>
		<path style="opacity:0.1;fill:#C94343;" d="M541.418,138.618c0-28.764,10.549-53.847,26.197-67.206
			c-2.591-1.69-5.085-3.177-7.44-4.405l-51.719,57.438c8.405,5.333,21.082,16.284,33.813,28.063
			C541.72,148,541.418,143.363,541.418,138.618z"/>
		<polygon style="fill:#BC9E7D;" points="580.244,105.246 555.382,131.33 557.377,133.123 582.239,107.039 		"/>
		<polygon style="fill:#BC9E7D;" points="584.17,108.903 559.307,134.987 561.302,136.781 586.164,110.697 		"/>
		<polygon style="fill:#BC9E7D;" points="586.599,121.627 568.389,141.277 570.491,142.943 588.701,123.293 		"/>
		<polygon style="fill:#BC9E7D;" points="575.051,125.012 563.81,137.493 565.912,139.16 577.152,126.678 		"/>
		<polygon style="fill:#BC9E7D;" points="609.591,122.326 600.224,132.939 601.857,133.995 611.223,123.383 		"/>
		<path style="fill:#FFB882;" d="M557.235,170.97c4.413-11.704-2.302-22.257-2.302-22.257l3.646-7.099c0,0,6.37,9.235,14.966,4.221
			c2.302-1.343,3.262-4.029,3.262-4.029s-18.42-15.733-20.53-15.158c-2.111,0.576-12.472,15.158-14.582,19.763
			s-2.705,7.831-2.686,10.553C539.099,170.085,546.081,175.485,557.235,170.97z"/>
		<g>
			<path style="fill:#ED4F5F;" d="M535.484,130.773c-0.023-0.042-0.046-0.062-0.078-0.091c-0.066-0.062-0.164-0.133-0.329-0.285
				c-0.243-0.222-1.98-1.765-2.74-2.464c-0.737-0.682-1.729-1.616-2.204-2.053c-0.473-0.437-1.46-1.246-1.769-1.53
				c-0.287-0.285-0.431-0.438-0.339-0.537c0.01-0.011,0.02-0.022,0.03-0.033c0.06-0.065,0.134-0.08,0.215-0.168
				c0.092-0.099,0.283-0.35,0.416-0.494c0.131-0.142,0.284-0.288,0.405-0.419c0.448-0.485,0.775-0.795,1.082-1.062
				c0.287-0.245,0.711-0.792,2.474-0.98c1.753-0.177,3.111,0.893,4.08,1.787c0.947,0.873,2.055,2.811,1.842,4.103
				c-0.224,1.303-1.457,2.817-1.731,3.114l-1.037,1.123C535.639,130.959,535.531,130.878,535.484,130.773z M532.714,124.936
				c0.66,0.61,1.273,1.051,1.747,1.488c0.23,0.213,0.848,0.805,1.409,1.322c0.321,0.316,0.673,0.641,1.048,0.985
				c0.509-0.486,0.837-1.04,1.005-1.642c0.287-1.018,0.1-2.495-1.673-4.131c-1.773-1.635-3.282-1.722-4.31-1.427
				c-0.618,0.184-1.156,0.524-1.644,1.031l0.962,0.969C531.767,124.063,532.394,124.642,532.714,124.936z"/>
			<path style="fill:#ED4F5F;" d="M534.079,117.932c-0.353-0.324-0.339-0.496-0.227-0.616c0.02-0.022,0.051-0.055,0.093-0.078
				c0.185-0.178,0.486-0.572,0.815-0.861c0.195-0.166,0.299-0.17,0.398-0.079c0.067,0.061,0.123,0.154,0.213,0.256
				c0.222,0.266,0.768,0.935,1.805,1.911c0.276,0.275,0.583,0.56,0.87,0.824c0.782,0.72,1.506,1.349,1.694,1.521
				c0.199,0.182,0.924,0.789,1.32,1.156c0.121,0.112,0.209,0.194,0.242,0.244c0.034,0.051,0.134,0.144,0.243,0.245
				c0.309,0.284,0.792,0.69,0.957,0.842c0.219,0.181,0.068,0.366-0.095,0.522l-0.925,1.002c-0.222,0.263-0.387,0.111-0.586-0.05
				c-0.206-0.13-0.489-0.574-0.874-0.93c-0.408-0.376-2.192-2.286-2.49-2.56c-0.288-0.265-1.777-1.72-2.042-1.964
				c-0.132-0.122-0.375-0.367-0.573-0.571l-0.377-0.386L534.079,117.932z"/>
			<path style="fill:#ED4F5F;" d="M536.536,114.671c0.254-0.275,0.764-1.048,1.221-1.545c1.361-1.475,2.234-2.422,3.275-2.378
				c0.638,0.037,1.358,0.008,2.095,0.688c1.332,1.23,1.098,2.787,0.564,4.007c-0.33,0.734-0.797,1.462-1.428,2.167l1.181,1.129
				l1.533,1.454c0.275,0.254,0.207,0.438,0.085,0.571c-0.08,0.087-0.183,0.154-0.244,0.221c-0.162,0.175-0.576,0.713-0.74,0.89
				c-0.161,0.176-0.336,0.077-0.544-0.117c-0.199-0.182-1.755-1.7-2.339-2.238l-3.017-2.783c-0.166-0.153-0.563-0.539-0.918-0.928
				l-0.687-0.715C536.321,114.859,536.404,114.814,536.536,114.671z M542.43,116.214c0.382-0.481,0.803-1.091,0.952-1.585
				c0.225-0.732,0.095-1.341-0.632-2.011c-0.242-0.224-0.549-0.466-0.952-0.714c-0.772-0.49-1.676-0.04-2.372,0.54
				c-0.238,0.19-0.461,0.41-0.694,0.663c-0.173,0.188-0.344,0.396-0.527,0.616l3.496,3.347
				C541.977,116.794,542.22,116.508,542.43,116.214z"/>
			<path style="fill:#ED4F5F;" d="M554.617,110.162c0.022,0.02,0.054,0.029,0.065,0.039c0.077,0.072,0.017,0.16-0.146,0.335
				c-0.194,0.21-1.68,1.754-2.035,2.14c-0.294,0.32-1.182,1.415-1.589,1.856c-0.081,0.089-0.154,0.145-0.184,0.178
				c-0.071,0.055-0.153,0.143-0.245,0.243c-0.254,0.275-0.577,0.67-0.749,0.856c-0.225,0.243-0.25,0.116-0.46-0.077
				c-0.177-0.162-1.656-1.652-1.91-1.884c-0.22-0.204-1.021-0.839-1.384-1.175c0.528,0.488-1.706-1.818-2.024-2.114l-1.255-1.137
				c-0.1-0.09-0.571-0.486-0.725-0.628l-0.011-0.01c-0.132-0.122,0.084-0.246,0.176-0.345c0.092-0.1,0.164-0.156,0.397-0.409
				c0.04-0.045,0.071-0.077,0.09-0.098c0.041-0.044,0.072-0.056,0.15,0.014c0.099,0.092,1.923,1.916,2.243,2.21l1.565,1.463
				c0.175,0.164,0.712,0.62,1.042,0.925c0.133,0.122,0.231,0.214,0.278,0.274c0.089,0.103,0.154,0.142,0.199,0.182
				c0.031,0.031,0.043,0.041,0.063,0.042l0.267-0.245c0.163-0.155,0.368-0.355,0.55-0.573c0.365-0.397,1.48-1.65,1.857-2.058
				c0.386-0.419,1.437-1.469,1.589-1.635c0.102-0.088,0.145-0.09,0.177-0.058c0.033,0.03,0.057,0.092,0.101,0.134l0.508,0.466
				C553.458,109.297,554.496,110.05,554.617,110.162z"/>
			<path style="fill:#ED4F5F;" d="M556.927,100.032c0.749,0.692,3.85,3.937,1.117,6.9c-1.372,1.487-3.1,1.238-4.523,0.638
				c-0.831-0.358-1.657-0.877-2.494-1.585c-1.981-1.828-2.475-4.894-1.145-6.337c0.559-0.605,1.023-1.154,1.632-1.305
				C553.846,97.782,556.343,99.495,556.927,100.032z M556.083,100.946c-1.795-1.656-4.131-2.239-5.339-0.928
				c-0.376,0.408-0.694,0.686-0.636,1.308c0.026,0.614-0.037,2.473,1.692,4.067c1.729,1.595,4.062,2.668,5.575,1.027
				C558.9,104.767,557.89,102.612,556.083,100.946z"/>
			<path style="fill:#ED4F5F;" d="M558.412,98.113c0.374,0.346,1.708,1.595,2.14,2.056c0.144,0.153,0.375,0.367,0.618,0.589
				c0.473,0.438,1.022,0.924,1.123,1.015c0.01,0.012,0.021,0.022,0.032,0.032c0.132,0.122,0.138,0.226,0.035,0.316
				c-0.116,0.058-0.265,0.265-0.347,0.332c-0.041,0.044-0.073,0.035-0.128-0.017c-0.044-0.04-0.099-0.113-0.189-0.193
				c-0.231-0.214-2.827-2.505-3.41-3.045c-0.572-0.527-1.996-1.9-2.351-2.29c-0.354-0.389-1.217-1.244-1.447-1.458
				c-0.011-0.01-0.033-0.03-0.045-0.04c-0.209-0.194-0.115-0.228-0.033-0.296c0.02-0.022,0.051-0.055,0.081-0.089
				c0.071-0.078,0.163-0.177,0.243-0.285c0.112-0.121,0.293-0.097,0.523,0.075c0.417,0.321,1.063,0.614,1.638,0.877
				c0.561,0.253,3.481,1.418,4.146,1.647c0.346,0.133,0.939,0.395,1.468,0.64l0.974,0.448l-0.122-0.377l-0.322-0.866
				c-0.259-0.67-1.042-2.959-1.415-3.791c-0.371-0.835-0.833-2.035-1.054-2.504c-0.241-0.446-0.879-1.545-0.726-1.711
				c0.06-0.065,0.179,0.004,0.334,0.147c0.23,0.213,0.543,0.582,0.863,0.92c0.544,0.56,1.568,1.504,2.086,1.982
				c0.506,0.468,2.04,1.923,2.438,2.351l1.785,1.667c0.011,0.01,0.022,0.02,0.032,0.032c0.078,0.07,0.07,0.144-0.001,0.222
				c-0.081,0.089-0.274,0.298-0.367,0.376c-0.052,0.034-0.085,0.025-0.14-0.025c-0.043-0.042-0.1-0.113-0.177-0.185
				c-0.199-0.182-2.394-2.268-2.903-2.82c-0.255-0.255-0.716-0.683-1.103-1.037c-0.231-0.214-0.461-0.427-0.713-0.64
				c0.083,0.263,0.158,0.513,0.252,0.742c0.123,0.421,0.321,0.868,0.418,1.182c0.215,0.585,0.911,2.35,1.101,2.851
				c0.159,0.534,0.811,2.215,0.895,2.456c0.095,0.228,0.16,0.555,0.068,0.655c-0.111,0.12-0.187,0.049-0.404-0.048
				c-0.205-0.086-1.685-0.737-2.147-0.899c-0.462-0.162-2.002-0.725-2.512-0.991c-0.278-0.117-0.842-0.391-1.36-0.624
				c-0.302-0.136-0.637-0.282-0.961-0.438l0.387,0.398C557.938,97.677,558.224,97.941,558.412,98.113z"/>
			<path style="fill:#ED4F5F;" d="M562.691,85.782c-0.069-0.146-0.04-0.221,0.064-0.224c0.127-0.027,0.268,0.062,0.442,0.141
				c0.185,0.108,1.388,0.484,1.86,0.634c0.494,0.15,1.032,0.363,1.615,0.613c0.562,0.252,2.214,0.737,2.956,0.994
				c0.721,0.236,2.306,0.66,2.746,0.779c0.417,0.121,1.151,0.389,1.469,0.397c0.097,0.027,0.161,0.047,0.194,0.077
				c0.077,0.072-0.004,0.181-0.094,0.28l-0.732,0.793c-0.081,0.089-0.33-0.04-0.567-0.115c-0.246-0.065-1.302-0.511-1.53-0.618
				c-0.216-0.097-0.635-0.217-0.882-0.303c-0.238-0.118-0.322-0.093-0.404-0.005c-0.071,0.077-0.211,0.273-0.373,0.471
				c-0.129,0.206-0.791,0.879-1.042,1.218c-0.08,0.11-0.203,0.243-0.314,0.363c-0.245,0.265-0.498,0.518-0.549,0.573
				c-0.091,0.098,0.02,0.221,0.11,0.366c0.09,0.124,0.621,0.941,0.8,1.166l0.362,0.558l0.237,0.382
				c0.125,0.197,0.148,0.26,0.076,0.338l-0.599,0.65c-0.041,0.044-0.062,0.045-0.094,0.013c-0.033-0.03-0.068-0.102-0.113-0.186
				c-0.058-0.136-0.06-0.178-0.276-0.541c-0.216-0.362-0.956-1.615-1.337-2.129c-0.416-0.546-0.814-1.284-1.045-1.718
				c-0.282-0.424-0.407-0.642-0.793-1.262c-0.384-0.621-0.773-1.261-1.058-1.747l-0.627-1.089
				C562.932,86.251,562.772,85.938,562.691,85.782z M567.726,88.346c-0.022-0.02-0.056-0.03-0.12-0.047
				c-0.204-0.045-1.311-0.435-1.733-0.618c-0.472-0.173-0.84-0.349-0.926-0.365c-0.236-0.076-0.313-0.126-0.364-0.07
				c-0.04,0.043,0.139,0.268,0.298,0.517c0.125,0.217,0.545,0.931,0.704,1.179c0.181,0.27,0.389,0.706,0.503,0.914
				c0.057,0.094,0.101,0.155,0.145,0.196c0.045,0.04,0.088,0.039,0.159-0.039c0.123-0.133,1.014-1.144,1.153-1.361
				C567.667,88.475,567.781,88.398,567.726,88.346z"/>
		</g>
	</g>
</g>
</svg>
